<?xml version="1.0" encoding="utf-8"?>
<!-- Generator: Adobe Illustrator 24.0.0, SVG Export Plug-In . SVG Version: 6.00 Build 0)  -->
<svg version="1.1" id="Layer_1" xmlns="http://www.w3.org/2000/svg" xmlns:xlink="http://www.w3.org/1999/xlink" x="0px" y="0px"
	 viewBox="0 0 1000 1000" style="enable-background:new 0 0 1000 1000;" xml:space="preserve">
<style type="text/css">
	.st0{fill:#FFFFFF;}
	.st1{fill-rule:evenodd;clip-rule:evenodd;fill:#FFFFFF;}
	.st2{stroke:#FFFFFF;stroke-width:1.7614;stroke-miterlimit:10;}
	.st3{stroke:#FFFFFF;stroke-width:0.2718;stroke-miterlimit:10;}
	.st4{stroke:#FFFFFF;stroke-width:0.0574;stroke-miterlimit:10;}
	.st5{fill-rule:evenodd;clip-rule:evenodd;}
	.st6{fill:#FFFFFF;stroke:#FFFFFF;stroke-width:0.0574;stroke-miterlimit:10;}
	.st7{fill:#FFFFFF;stroke:#FFFFFF;stroke-width:0.2718;stroke-miterlimit:10;}
	.st8{fill:#FFFFFF;stroke:#FFFFFF;stroke-width:1.7614;stroke-miterlimit:10;}
</style>
<g>
	<circle class="st5" cx="499.59" cy="500.05" r="470.63"/>
	<path class="st8" d="M500.25,149.61c-0.74-1.4-2.75-1.4-3.5,0L188.7,730.57h14.32c0.73,0,1.41-0.4,1.75-1.05l145.27-273.94
		c0.65-1.22,2.31-1.42,3.23-0.39l141.79,159.65c1.89,2.13,4.99,2.13,6.88,0l141.81-159.65c0.92-1.03,2.58-0.83,3.23,0.39
		l145.26,273.94c0.34,0.65,1.02,1.05,1.75,1.05h14.32L500.25,149.61z M557.24,292.55H439.77c-1.49,0-2.45-1.59-1.75-2.91
		l58.73-110.76c0.74-1.4,2.75-1.4,3.5,0l58.73,110.76C559.68,290.96,558.73,292.55,557.24,292.55z M496.72,596.06L359.15,441.15
		c-0.55-0.62-0.66-1.51-0.27-2.24l69.77-131.59c0.34-0.65,1.02-1.05,1.75-1.05h136.21c0.73,0,1.41,0.4,1.75,1.05l69.78,131.59
		c0.39,0.73,0.28,1.62-0.27,2.24L500.29,596.06C499.34,597.13,497.67,597.13,496.72,596.06z"/>
</g>
</svg>
