<?xml version="1.0" encoding="utf-8"?>
<!-- Generator: Adobe Illustrator 24.0.0, SVG Export Plug-In . SVG Version: 6.00 Build 0)  -->
<svg version="1.1" id="Layer_1" xmlns="http://www.w3.org/2000/svg" xmlns:xlink="http://www.w3.org/1999/xlink" x="0px" y="0px"
	 viewBox="0 0 32 32" style="enable-background:new 0 0 32 32;" xml:space="preserve">
<style type="text/css">
	.st0{fill:#FFFFFF;}
	.st1{fill-rule:evenodd;clip-rule:evenodd;fill:#FFFFFF;}
	.st2{stroke:#FFFFFF;stroke-width:1.7614;stroke-miterlimit:10;}
	.st3{stroke:#FFFFFF;stroke-width:0.2718;stroke-miterlimit:10;}
	.st4{stroke:#FFFFFF;stroke-width:0.0574;stroke-miterlimit:10;}
	.st5{fill-rule:evenodd;clip-rule:evenodd;}
	.st6{fill:#FFFFFF;stroke:#FFFFFF;stroke-width:0.0574;stroke-miterlimit:10;}
	.st7{fill:#FFFFFF;stroke:#FFFFFF;stroke-width:0.2718;stroke-miterlimit:10;}
	.st8{fill:#FFFFFF;stroke:#FFFFFF;stroke-width:1.7614;stroke-miterlimit:10;}
</style>
<g>
	<circle class="st5" cx="16" cy="16" r="15.34"/>
	<path class="st6" d="M16.02,4.57c-0.02-0.05-0.09-0.05-0.11,0L5.86,23.52h0.47c0.02,0,0.05-0.01,0.06-0.03l4.74-8.93
		c0.02-0.04,0.08-0.05,0.11-0.01l4.62,5.21c0.06,0.07,0.16,0.07,0.22,0l4.62-5.21c0.03-0.03,0.08-0.03,0.11,0.01l4.74,8.93
		c0.01,0.02,0.03,0.03,0.06,0.03h0.47L16.02,4.57z M17.88,9.23h-3.83c-0.05,0-0.08-0.05-0.06-0.09l1.91-3.61
		c0.02-0.05,0.09-0.05,0.11,0l1.92,3.61C17.96,9.18,17.93,9.23,17.88,9.23z M15.91,19.13l-4.49-5.05c-0.02-0.02-0.02-0.05-0.01-0.07
		l2.28-4.29c0.01-0.02,0.03-0.03,0.06-0.03h4.44c0.02,0,0.05,0.01,0.06,0.03l2.28,4.29c0.01,0.02,0.01,0.05-0.01,0.07l-4.49,5.05
		C15.99,19.17,15.94,19.17,15.91,19.13z"/>
</g>
</svg>
