<?xml version="1.0" encoding="utf-8"?>
<!-- Generator: Adobe Illustrator 24.0.0, SVG Export Plug-In . SVG Version: 6.00 Build 0)  -->
<svg version="1.1" id="Layer_1" xmlns="http://www.w3.org/2000/svg" xmlns:xlink="http://www.w3.org/1999/xlink" x="0px" y="0px"
	 viewBox="0 0 1000 268.65" style="enable-background:new 0 0 1000 268.65;" xml:space="preserve">
<style type="text/css">
	.st0{fill:#FFFFFF;}
	.st1{fill-rule:evenodd;clip-rule:evenodd;fill:#FFFFFF;}
	.st2{stroke:#FFFFFF;stroke-width:1.7614;stroke-miterlimit:10;}
	.st3{stroke:#FFFFFF;stroke-width:0.2718;stroke-miterlimit:10;}
	.st4{stroke:#FFFFFF;stroke-width:0.0574;stroke-miterlimit:10;}
	.st5{fill-rule:evenodd;clip-rule:evenodd;}
	.st6{fill:#FFFFFF;stroke:#FFFFFF;stroke-width:0.0574;stroke-miterlimit:10;}
	.st7{fill:#FFFFFF;stroke:#FFFFFF;stroke-width:0.2718;stroke-miterlimit:10;}
	.st8{fill:#FFFFFF;stroke:#FFFFFF;stroke-width:1.7614;stroke-miterlimit:10;}
</style>
<g>
	<g>
		<path class="st0" d="M316.62,102.85c13.47,0,23.21,4.67,32.28,12.4c1.07,1.07,1.2,2.67,0.13,3.73l-3.6,3.6
			c-1.07,1.33-2.13,1.2-3.47-0.13c-6.94-6-15.74-10-25.47-10c-21.07,0-37.21,17.74-37.21,38.41c0,20.54,16.14,38.28,37.21,38.28
			c11.6,0,18.41-4,25.47-10c1.33-1.07,2.4-0.93,3.47,0.13l3.07,3.07c1.07,0.8,0.8,2.67-0.13,3.6c-8.8,8-19.87,12.94-31.74,12.94
			c-26.67,0-48.15-21.21-48.15-47.88C268.48,124.32,289.95,102.85,316.62,102.85z"/>
		<path class="st0" d="M383.58,106.72c0-1.33,1.07-2.53,2.53-2.53h34.54c16,0,29.08,12.54,29.08,28.41
			c0,12.27-8.14,22.54-19.74,27.21l18.27,33.88c0.93,1.73,0,3.87-2.27,3.87h-6.4c-1.6,0-2.27-0.67-2.93-2L419.33,161h-25.47v34.01
			c0,1.33-1.2,2.53-2.53,2.53h-5.2c-1.47,0-2.53-1.2-2.53-2.53V106.72z M419.99,152.2c10.27,0,19.21-8.54,19.21-19.47
			c0-10.14-8.94-18.81-19.21-18.81h-25.87v38.28H419.99z"/>
		<path class="st0" d="M485.35,106.72c0-1.33,1.07-2.53,2.53-2.53h52.55c1.47,0,2.53,1.2,2.53,2.53v3.87c0,1.33-1.07,2.53-2.53,2.53
			h-44.81v32.54h38.28c1.33,0,2.53,1.2,2.53,2.53v3.87c0,1.47-1.2,2.53-2.53,2.53h-38.28v34.01h44.81c1.47,0,2.53,1.2,2.53,2.53
			v3.87c0,1.33-1.07,2.53-2.53,2.53h-52.55c-1.47,0-2.53-1.2-2.53-2.53V106.72z"/>
		<path class="st0" d="M565.38,194.08l40.55-89.76c0.4-0.8,1.07-1.47,2.27-1.47h1.33c1.2,0,1.87,0.67,2.27,1.47l40.28,89.76
			c0.8,1.73-0.27,3.47-2.27,3.47h-5.33c-1.2,0-2-0.8-2.27-1.47l-9.87-22.01h-47.35l-9.74,22.01c-0.27,0.67-1.07,1.47-2.27,1.47
			h-5.33C565.64,197.54,564.58,195.81,565.38,194.08z M628.73,165.8c-6.54-14.54-12.94-29.21-19.47-43.75h-1.07l-19.47,43.75H628.73
			z"/>
		<path class="st0" d="M692.22,113.12h-23.21c-1.47,0-2.53-1.2-2.53-2.53v-3.87c0-1.33,1.07-2.53,2.53-2.53h56.55
			c1.47,0,2.53,1.2,2.53,2.53v3.87c0,1.33-1.07,2.53-2.53,2.53h-23.21v81.89c0,1.33-1.2,2.53-2.53,2.53h-5.07
			c-1.33,0-2.53-1.2-2.53-2.53V113.12z"/>
		<path class="st0" d="M759.44,106.72c0-1.33,1.2-2.53,2.53-2.53h5.33c1.33,0,2.53,1.2,2.53,2.53v88.29c0,1.33-1.2,2.53-2.53,2.53
			h-5.33c-1.33,0-2.53-1.2-2.53-2.53V106.72z"/>
		<path class="st0" d="M798.66,107.65c-0.8-1.73,0.27-3.47,2.27-3.47h5.33c1.2,0,2,0.8,2.27,1.47l33.21,74.69h0.53l33.21-74.69
			c0.27-0.67,1.2-1.47,2.27-1.47h5.33c2,0,3.07,1.73,2.27,3.47l-40.55,89.76c-0.4,0.8-1.2,1.47-2.27,1.47h-1.33
			c-0.93,0-1.87-0.67-2.27-1.47L798.66,107.65z"/>
		<path class="st0" d="M914.03,106.72c0-1.33,1.07-2.53,2.53-2.53h52.55c1.47,0,2.53,1.2,2.53,2.53v3.87c0,1.33-1.07,2.53-2.53,2.53
			H924.3v32.54h38.28c1.33,0,2.53,1.2,2.53,2.53v3.87c0,1.47-1.2,2.53-2.53,2.53H924.3v34.01h44.81c1.47,0,2.53,1.2,2.53,2.53v3.87
			c0,1.33-1.07,2.53-2.53,2.53h-52.55c-1.47,0-2.53-1.2-2.53-2.53V106.72z"/>
	</g>
	<path class="st0" d="M140.28,27.87c-0.58-1.1-1.72-1.78-2.96-1.78c-1.25,0-2.38,0.68-2.96,1.78L23.92,236.15l-2.06,3.88h9.53
		c1.24,0,2.38-0.68,2.96-1.78l50.78-95.75l48.98,55.15c0.82,0.93,1.99,1.46,3.21,1.46c1.23,0,2.37-0.52,3.21-1.46l48.99-55.16
		l50.77,95.75c0.58,1.1,1.72,1.78,2.96,1.78h9.53L140.28,27.87z M119.48,77.71l17.84-33.65l17.84,33.65H119.48z M90.23,132.87
		l23.84-44.96h46.51l23.84,44.96l-47.1,53.03L90.23,132.87z"/>
</g>
</svg>
