<?xml version="1.0" encoding="utf-8"?>
<!-- Generator: Adobe Illustrator 24.0.0, SVG Export Plug-In . SVG Version: 6.00 Build 0)  -->
<svg version="1.1" id="Layer_1" xmlns="http://www.w3.org/2000/svg" xmlns:xlink="http://www.w3.org/1999/xlink" x="0px" y="0px"
	 viewBox="0 0 1000 268.65" style="enable-background:new 0 0 1000 268.65;" xml:space="preserve">
<style type="text/css">
	.st0{fill:#FFFFFF;}
	.st1{fill-rule:evenodd;clip-rule:evenodd;fill:#FFFFFF;}
	.st2{stroke:#FFFFFF;stroke-width:1.7614;stroke-miterlimit:10;}
	.st3{stroke:#FFFFFF;stroke-width:0.2718;stroke-miterlimit:10;}
	.st4{stroke:#FFFFFF;stroke-width:0.0574;stroke-miterlimit:10;}
	.st5{fill-rule:evenodd;clip-rule:evenodd;}
	.st6{fill:#FFFFFF;stroke:#FFFFFF;stroke-width:0.0574;stroke-miterlimit:10;}
	.st7{fill:#FFFFFF;stroke:#FFFFFF;stroke-width:0.2718;stroke-miterlimit:10;}
	.st8{fill:#FFFFFF;stroke:#FFFFFF;stroke-width:1.7614;stroke-miterlimit:10;}
</style>
<g>
	<g>
		<path class="st0" d="M1294.39-556c16.9,0,29.11,5.86,40.49,15.56c1.34,1.34,1.51,3.35,0.17,4.68l-4.52,4.52
			c-1.34,1.67-2.68,1.51-4.35-0.17c-8.7-7.53-19.74-12.55-31.95-12.55c-26.43,0-46.68,22.25-46.68,48.18
			c0,25.76,20.24,48.01,46.68,48.01c14.55,0,23.09-5.02,31.95-12.55c1.67-1.34,3.01-1.17,4.35,0.17l3.85,3.85
			c1.34,1,1,3.35-0.17,4.52c-11.04,10.04-24.93,16.23-39.82,16.23c-33.46,0-60.39-26.6-60.39-60.06
			C1233.99-529.07,1260.93-556,1294.39-556z"/>
		<path class="st0" d="M1378.37-551.15c0-1.67,1.34-3.18,3.18-3.18h43.33c20.08,0,36.47,15.73,36.47,35.63
			c0,15.39-10.21,28.27-24.76,34.13l22.92,42.49c1.17,2.17,0,4.85-2.84,4.85h-8.03c-2.01,0-2.84-0.84-3.68-2.51l-21.75-43.33h-31.95
			v42.66c0,1.67-1.51,3.18-3.18,3.18h-6.52c-1.84,0-3.18-1.51-3.18-3.18V-551.15z M1424.05-494.1c12.88,0,24.09-10.71,24.09-24.43
			c0-12.71-11.21-23.59-24.09-23.59h-32.46v48.01H1424.05z"/>
		<path class="st0" d="M1506.03-551.15c0-1.67,1.34-3.18,3.18-3.18h65.92c1.84,0,3.18,1.51,3.18,3.18v4.85
			c0,1.67-1.34,3.18-3.18,3.18h-56.21v40.82h48.01c1.67,0,3.18,1.51,3.18,3.18v4.85c0,1.84-1.51,3.18-3.18,3.18h-48.01v42.66h56.21
			c1.84,0,3.18,1.51,3.18,3.18v4.85c0,1.67-1.34,3.18-3.18,3.18h-65.92c-1.84,0-3.18-1.51-3.18-3.18V-551.15z"/>
		<path class="st0" d="M1606.41-441.57l50.86-112.59c0.5-1,1.34-1.84,2.84-1.84h1.67c1.51,0,2.34,0.84,2.84,1.84l50.52,112.59
			c1,2.17-0.33,4.35-2.84,4.35h-6.69c-1.51,0-2.51-1-2.84-1.84l-12.38-27.6H1631l-12.21,27.6c-0.33,0.84-1.34,1.84-2.84,1.84h-6.69
			C1606.74-437.22,1605.4-439.4,1606.41-441.57z M1685.87-477.04c-8.2-18.24-16.23-36.64-24.43-54.87h-1.34l-24.43,54.87H1685.87z"
			/>
		<path class="st0" d="M1765.51-543.12h-29.11c-1.84,0-3.18-1.51-3.18-3.18v-4.85c0-1.67,1.34-3.18,3.18-3.18h70.93
			c1.84,0,3.18,1.51,3.18,3.18v4.85c0,1.67-1.34,3.18-3.18,3.18h-29.11v102.72c0,1.67-1.51,3.18-3.18,3.18h-6.36
			c-1.67,0-3.18-1.51-3.18-3.18V-543.12z"/>
		<path class="st0" d="M1849.83-551.15c0-1.67,1.51-3.18,3.18-3.18h6.69c1.67,0,3.18,1.51,3.18,3.18v110.75
			c0,1.67-1.51,3.18-3.18,3.18h-6.69c-1.67,0-3.18-1.51-3.18-3.18V-551.15z"/>
		<path class="st0" d="M1899.02-549.98c-1-2.17,0.33-4.35,2.84-4.35h6.69c1.51,0,2.51,1,2.84,1.84l41.66,93.69h0.67l41.66-93.69
			c0.33-0.84,1.51-1.84,2.84-1.84h6.69c2.51,0,3.85,2.17,2.84,4.35l-50.86,112.59c-0.5,1-1.51,1.84-2.84,1.84h-1.67
			c-1.17,0-2.34-0.84-2.84-1.84L1899.02-549.98z"/>
		<path class="st0" d="M2043.74-551.15c0-1.67,1.34-3.18,3.18-3.18h65.92c1.84,0,3.18,1.51,3.18,3.18v4.85
			c0,1.67-1.34,3.18-3.18,3.18h-56.21v40.82h48.01c1.67,0,3.18,1.51,3.18,3.18v4.85c0,1.84-1.51,3.18-3.18,3.18h-48.01v42.66h56.21
			c1.84,0,3.18,1.51,3.18,3.18v4.85c0,1.67-1.34,3.18-3.18,3.18h-65.92c-1.84,0-3.18-1.51-3.18-3.18V-551.15z"/>
	</g>
	<path class="st0" d="M1686.46-1151.73L1686.46-1151.73c-0.46-0.86-1.35-1.4-2.32-1.4c-0.98,0-1.87,0.54-2.32,1.4l-283.16,534
		l-0.63,1.19h14.51c0.98,0,1.87-0.54,2.32-1.4l133.53-251.8c0.16-0.3,0.44-0.49,0.77-0.53c0.33-0.04,0.65,0.08,0.88,0.33
		l130.34,146.75c1,1.12,2.33,1.74,3.77,1.74s2.77-0.62,3.77-1.74l130.35-146.75c0.22-0.25,0.54-0.37,0.88-0.33
		c0.33,0.04,0.62,0.23,0.77,0.53l133.52,251.8c0.46,0.86,1.35,1.4,2.32,1.4h14.51L1686.46-1151.73z M1629.26-1022.26l53.98-101.81
		c0.18-0.34,0.51-0.54,0.89-0.54s0.71,0.2,0.89,0.54l53.99,101.81c0.17,0.32,0.16,0.68-0.03,0.99c-0.19,0.31-0.5,0.49-0.87,0.49
		h-107.97c-0.36,0-0.68-0.18-0.87-0.49C1629.1-1021.58,1629.09-1021.94,1629.26-1022.26z M1683.1-741.52l-126.45-142.39
		c-0.28-0.31-0.33-0.77-0.14-1.15l64.14-120.96c0.18-0.33,0.52-0.54,0.89-0.54h125.2c0.38,0,0.72,0.21,0.89,0.54l64.14,120.96
		c0.2,0.37,0.14,0.83-0.14,1.14l-126.46,142.39C1684.64-740.92,1683.64-740.92,1683.1-741.52z"/>
</g>
<g>
	<g>
		<path class="st0" d="M2596.62-1189.02c2.65,0,4.56,0.92,6.34,2.44c0.21,0.21,0.24,0.52,0.03,0.73l-0.71,0.71
			c-0.21,0.26-0.42,0.24-0.68-0.03c-1.36-1.18-3.09-1.96-5-1.96c-4.14,0-7.31,3.48-7.31,7.54c0,4.03,3.17,7.52,7.31,7.52
			c2.28,0,3.62-0.79,5-1.96c0.26-0.21,0.47-0.18,0.68,0.03l0.6,0.6c0.21,0.16,0.16,0.52-0.03,0.71c-1.73,1.57-3.9,2.54-6.24,2.54
			c-5.24,0-9.46-4.17-9.46-9.41C2587.16-1184.8,2591.38-1189.02,2596.62-1189.02z"/>
		<path class="st0" d="M2609.77-1188.26c0-0.26,0.21-0.5,0.5-0.5h6.79c3.14,0,5.71,2.46,5.71,5.58c0,2.41-1.6,4.43-3.88,5.34
			l3.59,6.65c0.18,0.34,0,0.76-0.45,0.76h-1.26c-0.31,0-0.45-0.13-0.58-0.39l-3.41-6.79h-5v6.68c0,0.26-0.24,0.5-0.5,0.5h-1.02
			c-0.29,0-0.5-0.24-0.5-0.5V-1188.26z M2616.92-1179.32c2.02,0,3.77-1.68,3.77-3.82c0-1.99-1.76-3.69-3.77-3.69h-5.08v7.52H2616.92
			z"/>
		<path class="st0" d="M2629.76-1188.26c0-0.26,0.21-0.5,0.5-0.5h10.32c0.29,0,0.5,0.24,0.5,0.5v0.76c0,0.26-0.21,0.5-0.5,0.5h-8.8
			v6.39h7.52c0.26,0,0.5,0.24,0.5,0.5v0.76c0,0.29-0.24,0.5-0.5,0.5h-7.52v6.68h8.8c0.29,0,0.5,0.24,0.5,0.5v0.76
			c0,0.26-0.21,0.5-0.5,0.5h-10.32c-0.29,0-0.5-0.24-0.5-0.5V-1188.26z"/>
		<path class="st0" d="M2645.48-1171.1l7.96-17.63c0.08-0.16,0.21-0.29,0.45-0.29h0.26c0.24,0,0.37,0.13,0.45,0.29l7.91,17.63
			c0.16,0.34-0.05,0.68-0.45,0.68h-1.05c-0.24,0-0.39-0.16-0.45-0.29l-1.94-4.32h-9.3l-1.91,4.32c-0.05,0.13-0.21,0.29-0.45,0.29
			h-1.05C2645.53-1170.42,2645.32-1170.76,2645.48-1171.1z M2657.92-1176.65c-1.28-2.86-2.54-5.74-3.82-8.59h-0.21l-3.82,8.59
			H2657.92z"/>
		<path class="st0" d="M2670.39-1187h-4.56c-0.29,0-0.5-0.24-0.5-0.5v-0.76c0-0.26,0.21-0.5,0.5-0.5h11.11c0.29,0,0.5,0.24,0.5,0.5
			v0.76c0,0.26-0.21,0.5-0.5,0.5h-4.56v16.09c0,0.26-0.24,0.5-0.5,0.5h-1c-0.26,0-0.5-0.24-0.5-0.5V-1187z"/>
		<path class="st0" d="M2683.6-1188.26c0-0.26,0.24-0.5,0.5-0.5h1.05c0.26,0,0.5,0.24,0.5,0.5v17.34c0,0.26-0.24,0.5-0.5,0.5h-1.05
			c-0.26,0-0.5-0.24-0.5-0.5V-1188.26z"/>
		<path class="st0" d="M2691.3-1188.07c-0.16-0.34,0.05-0.68,0.45-0.68h1.05c0.24,0,0.39,0.16,0.45,0.29l6.52,14.67h0.1l6.52-14.67
			c0.05-0.13,0.24-0.29,0.45-0.29h1.05c0.39,0,0.6,0.34,0.45,0.68l-7.96,17.63c-0.08,0.16-0.24,0.29-0.45,0.29h-0.26
			c-0.18,0-0.37-0.13-0.45-0.29L2691.3-1188.07z"/>
		<path class="st0" d="M2713.96-1188.26c0-0.26,0.21-0.5,0.5-0.5h10.32c0.29,0,0.5,0.24,0.5,0.5v0.76c0,0.26-0.21,0.5-0.5,0.5h-8.8
			v6.39h7.52c0.26,0,0.5,0.24,0.5,0.5v0.76c0,0.29-0.24,0.5-0.5,0.5h-7.52v6.68h8.8c0.29,0,0.5,0.24,0.5,0.5v0.76
			c0,0.26-0.21,0.5-0.5,0.5h-10.32c-0.29,0-0.5-0.24-0.5-0.5V-1188.26z"/>
	</g>
	<path class="st0" d="M2658.01-1282.3c-0.07-0.14-0.21-0.22-0.36-0.22s-0.29,0.08-0.36,0.22l-44.34,83.62l-0.1,0.19h2.27
		c0.15,0,0.29-0.08,0.36-0.22l20.91-39.43c0.02-0.05,0.07-0.08,0.12-0.08c0.05-0.01,0.1,0.01,0.14,0.05l20.41,22.98
		c0.16,0.18,0.37,0.27,0.59,0.27s0.43-0.1,0.59-0.27l20.41-22.98c0.03-0.04,0.08-0.06,0.14-0.05c0.05,0.01,0.1,0.04,0.12,0.08
		l20.91,39.43c0.07,0.14,0.21,0.22,0.36,0.22h2.27L2658.01-1282.3z M2649.06-1262.03l8.45-15.94c0.03-0.05,0.08-0.08,0.14-0.08
		s0.11,0.03,0.14,0.08l8.45,15.94c0.03,0.05,0.02,0.11,0,0.16c-0.03,0.05-0.08,0.08-0.14,0.08h-16.91c-0.06,0-0.11-0.03-0.14-0.08
		C2649.03-1261.92,2649.03-1261.98,2649.06-1262.03z M2677.62-1240.37l-19.8,22.3c-0.08,0.09-0.24,0.09-0.32,0l-19.8-22.3
		c-0.04-0.05-0.05-0.12-0.02-0.18l10.04-18.94c0.03-0.05,0.08-0.08,0.14-0.08h19.61c0.06,0,0.11,0.03,0.14,0.08l10.04,18.94
		C2677.67-1240.49,2677.66-1240.41,2677.62-1240.37z"/>
</g>
<g>
	<g>
		<path class="st0" d="M2419.92-1077.69c0.57,0,0.99,0.2,1.37,0.53c0.05,0.05,0.05,0.11,0.01,0.16l-0.15,0.15
			c-0.05,0.06-0.09,0.05-0.15-0.01c-0.29-0.25-0.67-0.42-1.08-0.42c-0.89,0-1.58,0.75-1.58,1.63c0,0.87,0.69,1.63,1.58,1.63
			c0.49,0,0.78-0.17,1.08-0.42c0.06-0.05,0.1-0.04,0.15,0.01l0.13,0.13c0.05,0.03,0.03,0.11-0.01,0.15
			c-0.37,0.34-0.84,0.55-1.35,0.55c-1.13,0-2.04-0.9-2.04-2.03C2417.88-1076.78,2418.79-1077.69,2419.92-1077.69z"/>
		<path class="st0" d="M2422.76-1077.53c0-0.06,0.05-0.11,0.11-0.11h1.47c0.68,0,1.23,0.53,1.23,1.21c0,0.52-0.35,0.96-0.84,1.16
			l0.78,1.44c0.04,0.07,0,0.16-0.1,0.16h-0.27c-0.07,0-0.1-0.03-0.12-0.08l-0.74-1.47h-1.08v1.44c0,0.06-0.05,0.11-0.11,0.11h-0.22
			c-0.06,0-0.11-0.05-0.11-0.11V-1077.53z M2424.31-1075.59c0.44,0,0.82-0.36,0.82-0.83c0-0.43-0.38-0.8-0.82-0.8h-1.1v1.63H2424.31
			z"/>
		<path class="st0" d="M2427.09-1077.53c0-0.06,0.05-0.11,0.11-0.11h2.23c0.06,0,0.11,0.05,0.11,0.11v0.16
			c0,0.06-0.05,0.11-0.11,0.11h-1.9v1.38h1.63c0.06,0,0.11,0.05,0.11,0.11v0.16c0,0.06-0.05,0.11-0.11,0.11h-1.63v1.44h1.9
			c0.06,0,0.11,0.05,0.11,0.11v0.16c0,0.06-0.05,0.11-0.11,0.11h-2.23c-0.06,0-0.11-0.05-0.11-0.11V-1077.53z"/>
		<path class="st0" d="M2430.48-1073.82l1.72-3.81c0.02-0.03,0.05-0.06,0.1-0.06h0.06c0.05,0,0.08,0.03,0.1,0.06l1.71,3.81
			c0.03,0.07-0.01,0.15-0.1,0.15h-0.23c-0.05,0-0.08-0.03-0.1-0.06l-0.42-0.93h-2.01l-0.41,0.93c-0.01,0.03-0.05,0.06-0.1,0.06
			h-0.23C2430.49-1073.67,2430.45-1073.74,2430.48-1073.82z M2433.17-1075.02c-0.28-0.62-0.55-1.24-0.83-1.86h-0.05l-0.83,1.86
			H2433.17z"/>
		<path class="st0" d="M2435.87-1077.25h-0.99c-0.06,0-0.11-0.05-0.11-0.11v-0.16c0-0.06,0.05-0.11,0.11-0.11h2.4
			c0.06,0,0.11,0.05,0.11,0.11v0.16c0,0.06-0.05,0.11-0.11,0.11h-0.99v3.48c0,0.06-0.05,0.11-0.11,0.11h-0.22
			c-0.06,0-0.11-0.05-0.11-0.11V-1077.25z"/>
		<path class="st0" d="M2438.72-1077.53c0-0.06,0.05-0.11,0.11-0.11h0.23c0.06,0,0.11,0.05,0.11,0.11v3.75
			c0,0.06-0.05,0.11-0.11,0.11h-0.23c-0.06,0-0.11-0.05-0.11-0.11V-1077.53z"/>
		<path class="st0" d="M2440.39-1077.49c-0.03-0.07,0.01-0.15,0.1-0.15h0.23c0.05,0,0.08,0.03,0.1,0.06l1.41,3.17h0.02l1.41-3.17
			c0.01-0.03,0.05-0.06,0.1-0.06h0.23c0.08,0,0.13,0.07,0.1,0.15l-1.72,3.81c-0.02,0.03-0.05,0.06-0.1,0.06h-0.06
			c-0.04,0-0.08-0.03-0.1-0.06L2440.39-1077.49z"/>
		<path class="st0" d="M2445.29-1077.53c0-0.06,0.05-0.11,0.11-0.11h2.23c0.06,0,0.11,0.05,0.11,0.11v0.16
			c0,0.06-0.05,0.11-0.11,0.11h-1.9v1.38h1.63c0.06,0,0.11,0.05,0.11,0.11v0.16c0,0.06-0.05,0.11-0.11,0.11h-1.63v1.44h1.9
			c0.06,0,0.11,0.05,0.11,0.11v0.16c0,0.06-0.05,0.11-0.11,0.11h-2.23c-0.06,0-0.11-0.05-0.11-0.11V-1077.53z"/>
	</g>
	<path class="st0" d="M2433.19-1097.85c-0.02-0.03-0.05-0.05-0.08-0.05c-0.03,0-0.06,0.02-0.08,0.05l-9.58,18.07l-0.02,0.04h0.49
		c0.03,0,0.06-0.02,0.08-0.05l4.52-8.52c0.01-0.01,0.01-0.02,0.03-0.02c0.01,0,0.02,0,0.03,0.01l4.41,4.97
		c0.03,0.04,0.08,0.06,0.13,0.06c0.05,0,0.09-0.02,0.13-0.06l4.41-4.97c0.01-0.01,0.02-0.01,0.03-0.01c0.01,0,0.02,0.01,0.03,0.02
		l4.52,8.52c0.02,0.03,0.05,0.05,0.08,0.05h0.49L2433.19-1097.85z M2431.26-1093.47l1.83-3.45c0.01-0.01,0.02-0.02,0.03-0.02
		c0.01,0,0.02,0.01,0.03,0.02l1.83,3.45c0.01,0.01,0.01,0.02,0,0.03s-0.02,0.02-0.03,0.02h-3.65c-0.01,0-0.02-0.01-0.03-0.02
		S2431.25-1093.46,2431.26-1093.47z M2437.43-1088.79l-4.28,4.82c-0.02,0.02-0.05,0.02-0.07,0l-4.28-4.82
		c-0.01-0.01-0.01-0.03,0-0.04l2.17-4.09c0.01-0.01,0.02-0.02,0.03-0.02h4.24c0.01,0,0.02,0.01,0.03,0.02l2.17,4.09
		C2437.44-1088.81,2437.44-1088.8,2437.43-1088.79z"/>
</g>
<g>
	<g>
		<path d="M2377.12-1077.69c0.57,0,0.99,0.2,1.37,0.53c0.05,0.05,0.05,0.11,0.01,0.16l-0.15,0.15c-0.05,0.06-0.09,0.05-0.15-0.01
			c-0.29-0.25-0.67-0.42-1.08-0.42c-0.89,0-1.58,0.75-1.58,1.63c0,0.87,0.69,1.63,1.58,1.63c0.49,0,0.78-0.17,1.08-0.42
			c0.06-0.05,0.1-0.04,0.15,0.01l0.13,0.13c0.05,0.03,0.03,0.11-0.01,0.15c-0.37,0.34-0.84,0.55-1.35,0.55
			c-1.13,0-2.04-0.9-2.04-2.03C2375.07-1076.78,2375.98-1077.69,2377.12-1077.69z"/>
		<path d="M2379.96-1077.53c0-0.06,0.05-0.11,0.11-0.11h1.47c0.68,0,1.23,0.53,1.23,1.21c0,0.52-0.35,0.96-0.84,1.16l0.78,1.44
			c0.04,0.07,0,0.16-0.1,0.16h-0.27c-0.07,0-0.1-0.03-0.12-0.08l-0.74-1.47h-1.08v1.44c0,0.06-0.05,0.11-0.11,0.11h-0.22
			c-0.06,0-0.11-0.05-0.11-0.11V-1077.53z M2381.51-1075.59c0.44,0,0.82-0.36,0.82-0.83c0-0.43-0.38-0.8-0.82-0.8h-1.1v1.63H2381.51
			z"/>
		<path d="M2384.28-1077.53c0-0.06,0.05-0.11,0.11-0.11h2.23c0.06,0,0.11,0.05,0.11,0.11v0.16c0,0.06-0.05,0.11-0.11,0.11h-1.9v1.38
			h1.62c0.06,0,0.11,0.05,0.11,0.11v0.16c0,0.06-0.05,0.11-0.11,0.11h-1.62v1.44h1.9c0.06,0,0.11,0.05,0.11,0.11v0.16
			c0,0.06-0.05,0.11-0.11,0.11h-2.23c-0.06,0-0.11-0.05-0.11-0.11V-1077.53z"/>
		<path d="M2387.68-1073.82l1.72-3.81c0.02-0.03,0.05-0.06,0.1-0.06h0.06c0.05,0,0.08,0.03,0.1,0.06l1.71,3.81
			c0.03,0.07-0.01,0.15-0.1,0.15h-0.23c-0.05,0-0.08-0.03-0.1-0.06l-0.42-0.93h-2.01l-0.41,0.93c-0.01,0.03-0.05,0.06-0.1,0.06
			h-0.23C2387.69-1073.67,2387.64-1073.74,2387.68-1073.82z M2390.37-1075.02c-0.28-0.62-0.55-1.24-0.83-1.86h-0.05l-0.83,1.86
			H2390.37z"/>
		<path d="M2393.06-1077.25h-0.99c-0.06,0-0.11-0.05-0.11-0.11v-0.16c0-0.06,0.05-0.11,0.11-0.11h2.4c0.06,0,0.11,0.05,0.11,0.11
			v0.16c0,0.06-0.05,0.11-0.11,0.11h-0.99v3.48c0,0.06-0.05,0.11-0.11,0.11h-0.22c-0.06,0-0.11-0.05-0.11-0.11V-1077.25z"/>
		<path d="M2395.92-1077.53c0-0.06,0.05-0.11,0.11-0.11h0.23c0.06,0,0.11,0.05,0.11,0.11v3.75c0,0.06-0.05,0.11-0.11,0.11h-0.23
			c-0.06,0-0.11-0.05-0.11-0.11V-1077.53z"/>
		<path d="M2397.58-1077.49c-0.03-0.07,0.01-0.15,0.1-0.15h0.23c0.05,0,0.08,0.03,0.1,0.06l1.41,3.17h0.02l1.41-3.17
			c0.01-0.03,0.05-0.06,0.1-0.06h0.23c0.08,0,0.13,0.07,0.1,0.15l-1.72,3.81c-0.02,0.03-0.05,0.06-0.1,0.06h-0.06
			c-0.04,0-0.08-0.03-0.1-0.06L2397.58-1077.49z"/>
		<path d="M2402.48-1077.53c0-0.06,0.05-0.11,0.11-0.11h2.23c0.06,0,0.11,0.05,0.11,0.11v0.16c0,0.06-0.05,0.11-0.11,0.11h-1.9v1.38
			h1.62c0.06,0,0.11,0.05,0.11,0.11v0.16c0,0.06-0.05,0.11-0.11,0.11h-1.62v1.44h1.9c0.06,0,0.11,0.05,0.11,0.11v0.16
			c0,0.06-0.05,0.11-0.11,0.11h-2.23c-0.06,0-0.11-0.05-0.11-0.11V-1077.53z"/>
	</g>
	<path d="M2390.39-1097.85c-0.02-0.03-0.05-0.05-0.08-0.05s-0.06,0.02-0.08,0.05l-9.58,18.07l-0.02,0.04h0.49
		c0.03,0,0.06-0.02,0.08-0.05l4.52-8.52c0.01-0.01,0.01-0.02,0.03-0.02c0.01,0,0.02,0,0.03,0.01l4.41,4.97
		c0.03,0.04,0.08,0.06,0.13,0.06s0.09-0.02,0.13-0.06l4.41-4.97c0.01-0.01,0.02-0.01,0.03-0.01c0.01,0,0.02,0.01,0.03,0.02
		l4.52,8.52c0.02,0.03,0.05,0.05,0.08,0.05h0.49L2390.39-1097.85z M2388.45-1093.47l1.83-3.45c0.01-0.01,0.02-0.02,0.03-0.02
		s0.02,0.01,0.03,0.02l1.83,3.45c0.01,0.01,0.01,0.02,0,0.03s-0.02,0.02-0.03,0.02h-3.65c-0.01,0-0.02-0.01-0.03-0.02
		S2388.45-1093.46,2388.45-1093.47z M2394.62-1088.79l-4.28,4.82c-0.02,0.02-0.05,0.02-0.07,0l-4.28-4.82
		c-0.01-0.01-0.01-0.03,0-0.04l2.17-4.09c0.01-0.01,0.02-0.02,0.03-0.02h4.24c0.01,0,0.02,0.01,0.03,0.02l2.17,4.09
		C2394.64-1088.81,2394.63-1088.8,2394.62-1088.79z"/>
</g>
<g>
	<g>
		<path d="M2389.4-1189.02c2.65,0,4.56,0.92,6.34,2.44c0.21,0.21,0.24,0.52,0.03,0.73l-0.71,0.71c-0.21,0.26-0.42,0.24-0.68-0.03
			c-1.36-1.18-3.09-1.96-5-1.96c-4.14,0-7.31,3.48-7.31,7.54c0,4.03,3.17,7.52,7.31,7.52c2.28,0,3.62-0.79,5-1.96
			c0.26-0.21,0.47-0.18,0.68,0.03l0.6,0.6c0.21,0.16,0.16,0.52-0.03,0.71c-1.73,1.57-3.9,2.54-6.24,2.54
			c-5.24,0-9.46-4.17-9.46-9.41C2379.94-1184.8,2384.16-1189.02,2389.4-1189.02z"/>
		<path d="M2402.55-1188.26c0-0.26,0.21-0.5,0.5-0.5h6.79c3.14,0,5.71,2.46,5.71,5.58c0,2.41-1.6,4.43-3.88,5.34l3.59,6.65
			c0.18,0.34,0,0.76-0.45,0.76h-1.26c-0.31,0-0.45-0.13-0.58-0.39l-3.41-6.79h-5v6.68c0,0.26-0.24,0.5-0.5,0.5h-1.02
			c-0.29,0-0.5-0.24-0.5-0.5V-1188.26z M2409.7-1179.32c2.02,0,3.77-1.68,3.77-3.82c0-1.99-1.76-3.69-3.77-3.69h-5.08v7.52H2409.7z"
			/>
		<path d="M2422.54-1188.26c0-0.26,0.21-0.5,0.5-0.5h10.32c0.29,0,0.5,0.24,0.5,0.5v0.76c0,0.26-0.21,0.5-0.5,0.5h-8.8v6.39h7.52
			c0.26,0,0.5,0.24,0.5,0.5v0.76c0,0.29-0.24,0.5-0.5,0.5h-7.52v6.68h8.8c0.29,0,0.5,0.24,0.5,0.5v0.76c0,0.26-0.21,0.5-0.5,0.5
			h-10.32c-0.29,0-0.5-0.24-0.5-0.5V-1188.26z"/>
		<path d="M2438.26-1171.1l7.96-17.63c0.08-0.16,0.21-0.29,0.45-0.29h0.26c0.24,0,0.37,0.13,0.45,0.29l7.91,17.63
			c0.16,0.34-0.05,0.68-0.45,0.68h-1.05c-0.24,0-0.39-0.16-0.45-0.29l-1.94-4.32h-9.3l-1.91,4.32c-0.05,0.13-0.21,0.29-0.45,0.29
			h-1.05C2438.31-1170.42,2438.1-1170.76,2438.26-1171.1z M2450.7-1176.65c-1.28-2.86-2.54-5.74-3.82-8.59h-0.21l-3.82,8.59H2450.7z
			"/>
		<path d="M2463.17-1187h-4.56c-0.29,0-0.5-0.24-0.5-0.5v-0.76c0-0.26,0.21-0.5,0.5-0.5h11.11c0.29,0,0.5,0.24,0.5,0.5v0.76
			c0,0.26-0.21,0.5-0.5,0.5h-4.56v16.09c0,0.26-0.24,0.5-0.5,0.5h-1c-0.26,0-0.5-0.24-0.5-0.5V-1187z"/>
		<path d="M2476.38-1188.26c0-0.26,0.24-0.5,0.5-0.5h1.05c0.26,0,0.5,0.24,0.5,0.5v17.34c0,0.26-0.24,0.5-0.5,0.5h-1.05
			c-0.26,0-0.5-0.24-0.5-0.5V-1188.26z"/>
		<path d="M2484.08-1188.07c-0.16-0.34,0.05-0.68,0.45-0.68h1.05c0.24,0,0.39,0.16,0.45,0.29l6.52,14.67h0.1l6.52-14.67
			c0.05-0.13,0.24-0.29,0.45-0.29h1.05c0.39,0,0.6,0.34,0.45,0.68l-7.96,17.63c-0.08,0.16-0.24,0.29-0.45,0.29h-0.26
			c-0.18,0-0.37-0.13-0.45-0.29L2484.08-1188.07z"/>
		<path d="M2506.74-1188.26c0-0.26,0.21-0.5,0.5-0.5h10.32c0.29,0,0.5,0.24,0.5,0.5v0.76c0,0.26-0.21,0.5-0.5,0.5h-8.8v6.39h7.52
			c0.26,0,0.5,0.24,0.5,0.5v0.76c0,0.29-0.24,0.5-0.5,0.5h-7.52v6.68h8.8c0.29,0,0.5,0.24,0.5,0.5v0.76c0,0.26-0.21,0.5-0.5,0.5
			h-10.32c-0.29,0-0.5-0.24-0.5-0.5V-1188.26z"/>
	</g>
	<path d="M2450.79-1282.3c-0.07-0.14-0.21-0.22-0.36-0.22c-0.15,0-0.29,0.08-0.36,0.22l-44.34,83.62l-0.1,0.19h2.27
		c0.15,0,0.29-0.08,0.36-0.22l20.91-39.43c0.02-0.05,0.07-0.08,0.12-0.08c0.05-0.01,0.1,0.01,0.14,0.05l20.41,22.98
		c0.16,0.18,0.37,0.27,0.59,0.27c0.22,0,0.43-0.1,0.59-0.27l20.41-22.98c0.04-0.04,0.08-0.06,0.14-0.05
		c0.05,0.01,0.1,0.04,0.12,0.08l20.91,39.43c0.07,0.14,0.21,0.22,0.36,0.22h2.27L2450.79-1282.3z M2441.84-1262.03l8.45-15.94
		c0.03-0.05,0.08-0.08,0.14-0.08c0.06,0,0.11,0.03,0.14,0.08l8.45,15.94c0.03,0.05,0.03,0.11,0,0.16c-0.03,0.05-0.08,0.08-0.14,0.08
		h-16.91c-0.06,0-0.11-0.03-0.14-0.08C2441.81-1261.92,2441.81-1261.98,2441.84-1262.03z M2470.4-1240.37l-19.8,22.3
		c-0.08,0.09-0.24,0.09-0.32,0l-19.8-22.3c-0.04-0.05-0.05-0.12-0.02-0.18l10.04-18.94c0.03-0.05,0.08-0.08,0.14-0.08h19.61
		c0.06,0,0.11,0.03,0.14,0.08l10.04,18.94C2470.45-1240.49,2470.44-1240.41,2470.4-1240.37z"/>
</g>
<g>
	<g>
		<path d="M119.39-556c16.9,0,29.11,5.86,40.49,15.56c1.34,1.34,1.51,3.35,0.17,4.68l-4.52,4.52c-1.34,1.67-2.68,1.51-4.35-0.17
			c-8.7-7.53-19.74-12.55-31.95-12.55c-26.43,0-46.68,22.25-46.68,48.18c0,25.76,20.24,48.01,46.68,48.01
			c14.55,0,23.09-5.02,31.95-12.55c1.67-1.34,3.01-1.17,4.35,0.17l3.85,3.85c1.34,1,1,3.35-0.17,4.52
			c-11.04,10.04-24.93,16.23-39.82,16.23c-33.46,0-60.39-26.6-60.39-60.06C58.99-529.07,85.93-556,119.39-556z"/>
		<path d="M203.37-551.15c0-1.67,1.34-3.18,3.18-3.18h43.33c20.08,0,36.47,15.73,36.47,35.63c0,15.39-10.21,28.27-24.76,34.13
			l22.92,42.49c1.17,2.17,0,4.85-2.84,4.85h-8.03c-2.01,0-2.84-0.84-3.68-2.51l-21.75-43.33h-31.95v42.66
			c0,1.67-1.51,3.18-3.18,3.18h-6.52c-1.84,0-3.18-1.51-3.18-3.18V-551.15z M249.05-494.1c12.88,0,24.09-10.71,24.09-24.43
			c0-12.71-11.21-23.59-24.09-23.59h-32.46v48.01H249.05z"/>
		<path d="M331.03-551.15c0-1.67,1.34-3.18,3.18-3.18h65.92c1.84,0,3.18,1.51,3.18,3.18v4.85c0,1.67-1.34,3.18-3.18,3.18h-56.21
			v40.82h48.01c1.67,0,3.18,1.51,3.18,3.18v4.85c0,1.84-1.51,3.18-3.18,3.18h-48.01v42.66h56.21c1.84,0,3.18,1.51,3.18,3.18v4.85
			c0,1.67-1.34,3.18-3.18,3.18H334.2c-1.84,0-3.18-1.51-3.18-3.18V-551.15z"/>
		<path d="M431.41-441.57l50.86-112.59c0.5-1,1.34-1.84,2.84-1.84h1.67c1.51,0,2.34,0.84,2.84,1.84l50.52,112.59
			c1,2.17-0.33,4.35-2.84,4.35h-6.69c-1.51,0-2.51-1-2.84-1.84l-12.38-27.6H456l-12.21,27.6c-0.33,0.84-1.34,1.84-2.84,1.84h-6.69
			C431.74-437.22,430.4-439.4,431.41-441.57z M510.87-477.04c-8.2-18.24-16.23-36.64-24.43-54.87h-1.34l-24.43,54.87H510.87z"/>
		<path d="M590.51-543.12H561.4c-1.84,0-3.18-1.51-3.18-3.18v-4.85c0-1.67,1.34-3.18,3.18-3.18h70.93c1.84,0,3.18,1.51,3.18,3.18
			v4.85c0,1.67-1.34,3.18-3.18,3.18h-29.11v102.72c0,1.67-1.51,3.18-3.18,3.18h-6.36c-1.67,0-3.18-1.51-3.18-3.18V-543.12z"/>
		<path d="M674.83-551.15c0-1.67,1.51-3.18,3.18-3.18h6.69c1.67,0,3.18,1.51,3.18,3.18v110.75c0,1.67-1.51,3.18-3.18,3.18h-6.69
			c-1.67,0-3.18-1.51-3.18-3.18V-551.15z"/>
		<path d="M724.02-549.98c-1-2.17,0.33-4.35,2.84-4.35h6.69c1.51,0,2.51,1,2.84,1.84l41.66,93.69h0.67l41.66-93.69
			c0.33-0.84,1.51-1.84,2.84-1.84h6.69c2.51,0,3.85,2.17,2.84,4.35L781.9-437.39c-0.5,1-1.51,1.84-2.84,1.84h-1.67
			c-1.17,0-2.34-0.84-2.84-1.84L724.02-549.98z"/>
		<path d="M868.74-551.15c0-1.67,1.34-3.18,3.18-3.18h65.92c1.84,0,3.18,1.51,3.18,3.18v4.85c0,1.67-1.34,3.18-3.18,3.18h-56.21
			v40.82h48.01c1.67,0,3.18,1.51,3.18,3.18v4.85c0,1.84-1.51,3.18-3.18,3.18h-48.01v42.66h56.21c1.84,0,3.18,1.51,3.18,3.18v4.85
			c0,1.67-1.34,3.18-3.18,3.18h-65.92c-1.84,0-3.18-1.51-3.18-3.18V-551.15z"/>
	</g>
	<path d="M511.46-1151.73c-0.46-0.86-1.35-1.4-2.32-1.4s-1.87,0.54-2.32,1.4l-283.16,534l-0.63,1.19h14.51
		c0.98,0,1.87-0.54,2.32-1.4l133.53-251.8c0.16-0.3,0.44-0.49,0.77-0.53c0.34-0.04,0.65,0.08,0.88,0.33l130.34,146.75
		c1,1.12,2.33,1.74,3.77,1.74s2.77-0.62,3.77-1.74l130.35-146.75c0.22-0.25,0.54-0.37,0.88-0.33c0.33,0.04,0.61,0.23,0.77,0.53
		l133.52,251.8c0.46,0.86,1.35,1.4,2.32,1.4h14.51L511.46-1151.73z M454.26-1022.26l53.98-101.81c0.18-0.34,0.51-0.54,0.89-0.54
		s0.71,0.2,0.89,0.54l53.99,101.81c0.17,0.32,0.16,0.68-0.03,0.99s-0.5,0.49-0.87,0.49H455.16c-0.36,0-0.68-0.18-0.87-0.49
		S454.09-1021.94,454.26-1022.26z M636.64-883.91L510.17-741.52c-0.53,0.6-1.54,0.6-2.07,0L381.65-883.91
		c-0.28-0.31-0.33-0.77-0.14-1.15l64.14-120.96c0.18-0.33,0.52-0.54,0.89-0.54h125.2c0.38,0,0.72,0.21,0.89,0.54l64.14,120.96
		C636.97-884.69,636.92-884.23,636.64-883.91z"/>
</g>
<g>
	<g>
		<path class="st0" d="M1491.62,102.85c13.47,0,23.21,4.67,32.28,12.4c1.07,1.07,1.2,2.67,0.13,3.73l-3.6,3.6
			c-1.07,1.33-2.13,1.2-3.47-0.13c-6.94-6-15.74-10-25.47-10c-21.07,0-37.21,17.74-37.21,38.41c0,20.54,16.14,38.28,37.21,38.28
			c11.6,0,18.41-4,25.47-10c1.33-1.07,2.4-0.93,3.47,0.13l3.07,3.07c1.07,0.8,0.8,2.67-0.13,3.6c-8.8,8-19.87,12.94-31.74,12.94
			c-26.67,0-48.15-21.21-48.15-47.88C1443.48,124.32,1464.95,102.85,1491.62,102.85z"/>
		<path class="st0" d="M1558.58,106.72c0-1.33,1.07-2.53,2.53-2.53h34.54c16,0,29.08,12.54,29.08,28.41
			c0,12.27-8.14,22.54-19.74,27.21l18.27,33.88c0.93,1.73,0,3.87-2.27,3.87h-6.4c-1.6,0-2.27-0.67-2.93-2L1594.33,161h-25.47v34.01
			c0,1.33-1.2,2.53-2.53,2.53h-5.2c-1.47,0-2.53-1.2-2.53-2.53V106.72z M1594.99,152.2c10.27,0,19.21-8.54,19.21-19.47
			c0-10.14-8.94-18.81-19.21-18.81h-25.87v38.28H1594.99z"/>
		<path class="st0" d="M1660.35,106.72c0-1.33,1.07-2.53,2.53-2.53h52.55c1.47,0,2.53,1.2,2.53,2.53v3.87
			c0,1.33-1.07,2.53-2.53,2.53h-44.81v32.54h38.28c1.33,0,2.53,1.2,2.53,2.53v3.87c0,1.47-1.2,2.53-2.53,2.53h-38.28v34.01h44.81
			c1.47,0,2.53,1.2,2.53,2.53v3.87c0,1.33-1.07,2.53-2.53,2.53h-52.55c-1.47,0-2.53-1.2-2.53-2.53V106.72z"/>
		<path class="st0" d="M1740.38,194.08l40.55-89.76c0.4-0.8,1.07-1.47,2.27-1.47h1.33c1.2,0,1.87,0.67,2.27,1.47l40.28,89.76
			c0.8,1.73-0.27,3.47-2.27,3.47h-5.33c-1.2,0-2-0.8-2.27-1.47l-9.87-22.01h-47.35l-9.74,22.01c-0.27,0.67-1.07,1.47-2.27,1.47
			h-5.33C1740.64,197.54,1739.58,195.81,1740.38,194.08z M1803.73,165.8c-6.54-14.54-12.94-29.21-19.47-43.75h-1.07l-19.47,43.75
			H1803.73z"/>
		<path class="st0" d="M1867.22,113.12h-23.21c-1.47,0-2.53-1.2-2.53-2.53v-3.87c0-1.33,1.07-2.53,2.53-2.53h56.55
			c1.47,0,2.53,1.2,2.53,2.53v3.87c0,1.33-1.07,2.53-2.53,2.53h-23.21v81.89c0,1.33-1.2,2.53-2.53,2.53h-5.07
			c-1.33,0-2.53-1.2-2.53-2.53V113.12z"/>
		<path class="st0" d="M1934.44,106.72c0-1.33,1.2-2.53,2.53-2.53h5.33c1.33,0,2.53,1.2,2.53,2.53v88.29c0,1.33-1.2,2.53-2.53,2.53
			h-5.33c-1.33,0-2.53-1.2-2.53-2.53V106.72z"/>
		<path class="st0" d="M1973.66,107.65c-0.8-1.73,0.27-3.47,2.27-3.47h5.33c1.2,0,2,0.8,2.27,1.47l33.21,74.69h0.53l33.21-74.69
			c0.27-0.67,1.2-1.47,2.27-1.47h5.33c2,0,3.07,1.73,2.27,3.47l-40.55,89.76c-0.4,0.8-1.2,1.47-2.27,1.47h-1.33
			c-0.93,0-1.87-0.67-2.27-1.47L1973.66,107.65z"/>
		<path class="st0" d="M2089.03,106.72c0-1.33,1.07-2.53,2.53-2.53h52.55c1.47,0,2.53,1.2,2.53,2.53v3.87
			c0,1.33-1.07,2.53-2.53,2.53h-44.81v32.54h38.28c1.33,0,2.53,1.2,2.53,2.53v3.87c0,1.47-1.2,2.53-2.53,2.53h-38.28v34.01h44.81
			c1.47,0,2.53,1.2,2.53,2.53v3.87c0,1.33-1.07,2.53-2.53,2.53h-52.55c-1.47,0-2.53-1.2-2.53-2.53V106.72z"/>
	</g>
	<path class="st0" d="M1315.28,27.87c-0.58-1.1-1.72-1.78-2.96-1.78c-1.25,0-2.38,0.68-2.96,1.78l-110.44,208.28l-2.06,3.88h9.53
		c1.24,0,2.38-0.68,2.96-1.78l50.78-95.75l48.98,55.15c0.82,0.93,1.99,1.46,3.21,1.46c1.23,0,2.37-0.52,3.21-1.46l48.99-55.16
		l50.77,95.75c0.58,1.1,1.72,1.78,2.96,1.78h9.53L1315.28,27.87z M1294.48,77.71l17.84-33.65l17.84,33.65H1294.48z M1265.23,132.87
		l23.84-44.96h46.51l23.84,44.96l-47.1,53.03L1265.23,132.87z"/>
</g>
<g>
	<g>
		<path d="M316.62,102.85c13.47,0,23.21,4.67,32.28,12.4c1.07,1.07,1.2,2.67,0.13,3.73l-3.6,3.6c-1.07,1.33-2.13,1.2-3.47-0.13
			c-6.94-6-15.74-10-25.47-10c-21.07,0-37.21,17.74-37.21,38.41c0,20.54,16.14,38.28,37.21,38.28c11.6,0,18.41-4,25.47-10
			c1.33-1.07,2.4-0.93,3.47,0.13l3.07,3.07c1.07,0.8,0.8,2.67-0.13,3.6c-8.8,8-19.87,12.94-31.74,12.94
			c-26.67,0-48.15-21.21-48.15-47.88C268.48,124.32,289.95,102.85,316.62,102.85z"/>
		<path d="M383.58,106.72c0-1.33,1.07-2.53,2.53-2.53h34.54c16,0,29.08,12.54,29.08,28.41c0,12.27-8.14,22.54-19.74,27.21
			l18.27,33.88c0.93,1.73,0,3.87-2.27,3.87h-6.4c-1.6,0-2.27-0.67-2.93-2L419.33,161h-25.47v34.01c0,1.33-1.2,2.53-2.53,2.53h-5.2
			c-1.47,0-2.53-1.2-2.53-2.53V106.72z M419.99,152.2c10.27,0,19.21-8.54,19.21-19.47c0-10.14-8.94-18.81-19.21-18.81h-25.87v38.28
			H419.99z"/>
		<path d="M485.35,106.72c0-1.33,1.07-2.53,2.53-2.53h52.55c1.47,0,2.53,1.2,2.53,2.53v3.87c0,1.33-1.07,2.53-2.53,2.53h-44.81
			v32.54h38.28c1.33,0,2.53,1.2,2.53,2.53v3.87c0,1.47-1.2,2.53-2.53,2.53h-38.28v34.01h44.81c1.47,0,2.53,1.2,2.53,2.53v3.87
			c0,1.33-1.07,2.53-2.53,2.53h-52.55c-1.47,0-2.53-1.2-2.53-2.53V106.72z"/>
		<path d="M565.38,194.08l40.55-89.76c0.4-0.8,1.07-1.47,2.27-1.47h1.33c1.2,0,1.87,0.67,2.27,1.47l40.28,89.76
			c0.8,1.73-0.27,3.47-2.27,3.47h-5.33c-1.2,0-2-0.8-2.27-1.47l-9.87-22.01h-47.35l-9.74,22.01c-0.27,0.67-1.07,1.47-2.27,1.47
			h-5.33C565.64,197.54,564.58,195.81,565.38,194.08z M628.73,165.8c-6.54-14.54-12.94-29.21-19.47-43.75h-1.07l-19.47,43.75H628.73
			z"/>
		<path d="M692.22,113.12h-23.21c-1.47,0-2.53-1.2-2.53-2.53v-3.87c0-1.33,1.07-2.53,2.53-2.53h56.55c1.47,0,2.53,1.2,2.53,2.53
			v3.87c0,1.33-1.07,2.53-2.53,2.53h-23.21v81.89c0,1.33-1.2,2.53-2.53,2.53h-5.07c-1.33,0-2.53-1.2-2.53-2.53V113.12z"/>
		<path d="M759.44,106.72c0-1.33,1.2-2.53,2.53-2.53h5.33c1.33,0,2.53,1.2,2.53,2.53v88.29c0,1.33-1.2,2.53-2.53,2.53h-5.33
			c-1.33,0-2.53-1.2-2.53-2.53V106.72z"/>
		<path d="M798.66,107.65c-0.8-1.73,0.27-3.47,2.27-3.47h5.33c1.2,0,2,0.8,2.27,1.47l33.21,74.69h0.53l33.21-74.69
			c0.27-0.67,1.2-1.47,2.27-1.47h5.33c2,0,3.07,1.73,2.27,3.47l-40.55,89.76c-0.4,0.8-1.2,1.47-2.27,1.47h-1.33
			c-0.93,0-1.87-0.67-2.27-1.47L798.66,107.65z"/>
		<path d="M914.03,106.72c0-1.33,1.07-2.53,2.53-2.53h52.55c1.47,0,2.53,1.2,2.53,2.53v3.87c0,1.33-1.07,2.53-2.53,2.53H924.3v32.54
			h38.28c1.33,0,2.53,1.2,2.53,2.53v3.87c0,1.47-1.2,2.53-2.53,2.53H924.3v34.01h44.81c1.47,0,2.53,1.2,2.53,2.53v3.87
			c0,1.33-1.07,2.53-2.53,2.53h-52.55c-1.47,0-2.53-1.2-2.53-2.53V106.72z"/>
	</g>
	<path d="M140.28,27.87c-0.58-1.1-1.72-1.78-2.96-1.78c-1.25,0-2.38,0.68-2.96,1.78L23.92,236.15l-2.06,3.88h9.53
		c1.24,0,2.38-0.68,2.96-1.78l50.78-95.75l48.98,55.15c0.82,0.93,1.99,1.46,3.21,1.46c1.23,0,2.37-0.52,3.21-1.46l48.99-55.16
		l50.77,95.75c0.58,1.1,1.72,1.78,2.96,1.78h9.53L140.28,27.87z M119.48,77.71l17.84-33.65l17.84,33.65H119.48z M90.23,132.87
		l23.84-44.96h46.51l23.84,44.96l-47.1,53.03L90.23,132.87z"/>
</g>
<g>
	<circle class="st1" cx="1674.59" cy="-1884.77" r="470.63"/>
	<path class="st2" d="M1675.25-2235.21c-0.74-1.4-2.75-1.4-3.5,0l-308.05,580.95h14.32c0.73,0,1.41-0.4,1.75-1.05l145.27-273.94
		c0.65-1.22,2.31-1.42,3.23-0.39l141.79,159.65c1.89,2.13,4.99,2.13,6.88,0l141.81-159.65c0.92-1.03,2.58-0.83,3.23,0.39
		l145.26,273.94c0.34,0.65,1.02,1.05,1.75,1.05h14.32L1675.25-2235.21z M1732.24-2092.28h-117.46c-1.49,0-2.45-1.59-1.75-2.91
		l58.73-110.76c0.74-1.4,2.75-1.4,3.5,0l58.73,110.76C1734.68-2093.86,1733.73-2092.28,1732.24-2092.28z M1671.72-1788.76
		l-137.57-154.91c-0.55-0.62-0.66-1.51-0.27-2.24l69.77-131.59c0.34-0.65,1.02-1.05,1.75-1.05h136.21c0.73,0,1.41,0.4,1.75,1.05
		l69.78,131.59c0.39,0.73,0.28,1.62-0.27,2.24l-137.58,154.91C1674.34-1787.69,1672.67-1787.69,1671.72-1788.76z"/>
</g>
<g>
	<circle class="st1" cx="2622.66" cy="-2309.82" r="72.63"/>
	<path class="st3" d="M2622.76-2363.9c-0.11-0.22-0.43-0.22-0.54,0l-47.54,89.65h2.21c0.11,0,0.22-0.06,0.27-0.16l22.42-42.28
		c0.1-0.19,0.36-0.22,0.5-0.06l21.88,24.64c0.29,0.33,0.77,0.33,1.06,0l21.88-24.64c0.14-0.16,0.4-0.13,0.5,0.06l22.42,42.28
		c0.05,0.1,0.16,0.16,0.27,0.16h2.21L2622.76-2363.9z M2631.55-2341.85h-18.13c-0.23,0-0.38-0.25-0.27-0.45l9.06-17.09
		c0.11-0.22,0.43-0.22,0.54,0l9.06,17.09C2631.93-2342.09,2631.79-2341.85,2631.55-2341.85z M2622.22-2295.01l-21.23-23.91
		c-0.08-0.1-0.1-0.23-0.04-0.35l10.77-20.31c0.05-0.1,0.16-0.16,0.27-0.16H2633c0.11,0,0.22,0.06,0.27,0.16l10.77,20.31
		c0.06,0.11,0.04,0.25-0.04,0.35l-21.23,23.91C2622.62-2294.84,2622.36-2294.84,2622.22-2295.01z"/>
</g>
<g>
	<circle class="st1" cx="2478.78" cy="-2067.48" r="15.34"/>
	<path class="st4" d="M2478.81-2078.91c-0.02-0.05-0.09-0.05-0.11,0l-10.04,18.94h0.47c0.02,0,0.05-0.01,0.06-0.03l4.74-8.93
		c0.02-0.04,0.08-0.05,0.11-0.01l4.62,5.21c0.06,0.07,0.16,0.07,0.22,0l4.62-5.21c0.03-0.03,0.08-0.03,0.11,0.01l4.74,8.93
		c0.01,0.02,0.03,0.03,0.06,0.03h0.47L2478.81-2078.91z M2480.66-2074.25h-3.83c-0.05,0-0.08-0.05-0.06-0.09l1.91-3.61
		c0.02-0.05,0.09-0.05,0.11,0l1.92,3.61C2480.74-2074.3,2480.71-2074.25,2480.66-2074.25z M2478.69-2064.35l-4.49-5.05
		c-0.02-0.02-0.02-0.05-0.01-0.07l2.27-4.29c0.01-0.02,0.03-0.03,0.06-0.03h4.44c0.02,0,0.05,0.01,0.06,0.03l2.28,4.29
		c0.01,0.02,0.01,0.05-0.01,0.07l-4.49,5.05C2478.78-2064.32,2478.72-2064.32,2478.69-2064.35z"/>
</g>
<g>
	<circle class="st5" cx="2433" cy="-2067.48" r="15.34"/>
	<path class="st6" d="M2433.02-2078.91c-0.02-0.05-0.09-0.05-0.11,0l-10.04,18.94h0.47c0.02,0,0.05-0.01,0.06-0.03l4.74-8.93
		c0.02-0.04,0.08-0.05,0.11-0.01l4.62,5.21c0.06,0.07,0.16,0.07,0.22,0l4.62-5.21c0.03-0.03,0.08-0.03,0.11,0.01l4.74,8.93
		c0.01,0.02,0.03,0.03,0.06,0.03h0.47L2433.02-2078.91z M2434.88-2074.25h-3.83c-0.05,0-0.08-0.05-0.06-0.09l1.92-3.61
		c0.02-0.05,0.09-0.05,0.11,0l1.92,3.61C2434.96-2074.3,2434.93-2074.25,2434.88-2074.25z M2432.91-2064.35l-4.49-5.05
		c-0.02-0.02-0.02-0.05-0.01-0.07l2.28-4.29c0.01-0.02,0.03-0.03,0.06-0.03h4.44c0.02,0,0.05,0.01,0.06,0.03l2.28,4.29
		c0.01,0.02,0.01,0.05-0.01,0.07l-4.49,5.05C2432.99-2064.32,2432.94-2064.32,2432.91-2064.35z"/>
</g>
<g>
	<circle class="st5" cx="2433" cy="-2309.82" r="72.63"/>
	<path class="st7" d="M2433.1-2363.9c-0.11-0.22-0.43-0.22-0.54,0l-47.54,89.65h2.21c0.11,0,0.22-0.06,0.27-0.16l22.42-42.28
		c0.1-0.19,0.36-0.22,0.5-0.06l21.88,24.64c0.29,0.33,0.77,0.33,1.06,0l21.88-24.64c0.14-0.16,0.4-0.13,0.5,0.06l22.42,42.28
		c0.05,0.1,0.16,0.16,0.27,0.16h2.21L2433.1-2363.9z M2441.9-2341.85h-18.13c-0.23,0-0.38-0.25-0.27-0.45l9.06-17.09
		c0.11-0.22,0.43-0.22,0.54,0l9.06,17.09C2442.27-2342.09,2442.13-2341.85,2441.9-2341.85z M2432.56-2295.01l-21.23-23.91
		c-0.08-0.1-0.1-0.23-0.04-0.35l10.77-20.31c0.05-0.1,0.16-0.16,0.27-0.16h21.02c0.11,0,0.22,0.06,0.27,0.16l10.77,20.31
		c0.06,0.11,0.04,0.25-0.04,0.35l-21.23,23.91C2432.96-2294.84,2432.7-2294.84,2432.56-2295.01z"/>
</g>
<g>
	<circle class="st5" cx="499.59" cy="-1884.77" r="470.63"/>
	<path class="st8" d="M500.25-2235.21c-0.74-1.4-2.75-1.4-3.5,0L188.7-1654.26h14.32c0.73,0,1.41-0.4,1.75-1.05l145.27-273.94
		c0.65-1.22,2.31-1.42,3.23-0.39l141.79,159.65c1.89,2.13,4.99,2.13,6.88,0l141.81-159.65c0.92-1.03,2.58-0.83,3.23,0.39
		l145.26,273.94c0.34,0.65,1.02,1.05,1.75,1.05h14.32L500.25-2235.21z M557.24-2092.28H439.77c-1.49,0-2.45-1.59-1.75-2.91
		l58.73-110.76c0.74-1.4,2.75-1.4,3.5,0l58.73,110.76C559.68-2093.86,558.73-2092.28,557.24-2092.28z M496.72-1788.76
		l-137.57-154.91c-0.55-0.62-0.66-1.51-0.27-2.24l69.77-131.59c0.34-0.65,1.02-1.05,1.75-1.05h136.21c0.73,0,1.41,0.4,1.75,1.05
		l69.78,131.59c0.39,0.73,0.28,1.62-0.27,2.24l-137.58,154.91C499.34-1787.69,497.67-1787.69,496.72-1788.76z"/>
</g>
</svg>
