<?xml version="1.0" encoding="utf-8"?>
<!-- Generator: Adobe Illustrator 24.0.0, SVG Export Plug-In . SVG Version: 6.00 Build 0)  -->
<svg version="1.1" id="Layer_1" xmlns="http://www.w3.org/2000/svg" xmlns:xlink="http://www.w3.org/1999/xlink" x="0px" y="0px"
	 viewBox="0 0 150 150" style="enable-background:new 0 0 150 150;" xml:space="preserve">
<style type="text/css">
	.st0{fill-rule:evenodd;clip-rule:evenodd;fill:#FFFFFF;}
	.st1{stroke:#FFFFFF;stroke-width:0.2718;stroke-miterlimit:10;}
	.st2{fill-rule:evenodd;clip-rule:evenodd;}
	.st3{fill:#FFFFFF;stroke:#FFFFFF;stroke-width:0.2718;stroke-miterlimit:10;}
</style>
<g>
	<circle class="st2" cx="74.64" cy="75.08" r="72.63"/>
	<path class="st3" d="M74.74,21c-0.11-0.22-0.43-0.22-0.54,0l-47.54,89.65h2.21c0.11,0,0.22-0.06,0.27-0.16l22.42-42.28
		c0.1-0.19,0.36-0.22,0.5-0.06L73.94,92.8c0.29,0.33,0.77,0.33,1.06,0l21.88-24.64c0.14-0.16,0.4-0.13,0.5,0.06l22.42,42.28
		c0.05,0.1,0.16,0.16,0.27,0.16h2.21L74.74,21z M83.54,43.06H65.41c-0.23,0-0.38-0.25-0.27-0.45l9.06-17.09
		c0.11-0.22,0.43-0.22,0.54,0l9.06,17.09C83.92,42.81,83.77,43.06,83.54,43.06z M74.2,89.9L52.97,65.99
		c-0.08-0.1-0.1-0.23-0.04-0.35L63.7,45.34c0.05-0.1,0.16-0.16,0.27-0.16h21.02c0.11,0,0.22,0.06,0.27,0.16l10.77,20.31
		c0.06,0.11,0.04,0.25-0.04,0.35L74.75,89.9C74.6,90.06,74.35,90.06,74.2,89.9z"/>
</g>
</svg>
