<?xml version="1.0" encoding="utf-8"?>
<!-- Generator: Adobe Illustrator 24.1.0, SVG Export Plug-In . SVG Version: 6.00 Build 0)  -->
<svg version="1.1" id="Layer_1" xmlns="http://www.w3.org/2000/svg" xmlns:xlink="http://www.w3.org/1999/xlink" x="0px" y="0px"
	 viewBox="0 0 5103.03 4250.73" style="enable-background:new 0 0 5103.03 4250.73;" xml:space="preserve">
<style type="text/css">
	.st0{fill:#FFFFFF;}
	.st1{fill-rule:evenodd;clip-rule:evenodd;fill:#FFFFFF;}
	.st2{stroke:#FFFFFF;stroke-width:1.7614;stroke-miterlimit:10;}
	.st3{stroke:#FFFFFF;stroke-width:0.2718;stroke-miterlimit:10;}
	.st4{stroke:#FFFFFF;stroke-width:0.0574;stroke-miterlimit:10;}
	.st5{fill-rule:evenodd;clip-rule:evenodd;}
	.st6{fill:#FFFFFF;stroke:#FFFFFF;stroke-width:0.0574;stroke-miterlimit:10;}
	.st7{fill:#FFFFFF;stroke:#FFFFFF;stroke-width:0.2718;stroke-miterlimit:10;}
	.st8{fill:#FFFFFF;stroke:#FFFFFF;stroke-width:1.7614;stroke-miterlimit:10;}
	.st9{fill:#E6FDFF;}
</style>
<g>
	<path class="st9" d="M-37.67,2009.33l321.18,605.72c0.1,0.19,0.24,0.34,0.36,0.51l-321.45-606.23c-0.83-1.57-2.37-2.34-3.91-2.32
		C-39.9,2007.02-38.43,2007.91-37.67,2009.33z"/>
	<path class="st9" d="M303.05,2651.91l154.29,290.97c0.09,0.16,0.21,0.29,0.32,0.44l-154.78-291.9
		C302.94,2651.58,302.97,2651.75,303.05,2651.91z"/>
	<path class="st9" d="M478.07,2981.96l129.87,244.91c0.08,0.15,0.19,0.26,0.28,0.39l-130.34-245.81
		C477.94,2981.62,477.98,2981.79,478.07,2981.96z"/>
	<path class="st9" d="M2573.59,2007.13c-0.52-0.11-1.06-0.12-1.59-0.04c0.08,0.01,0.15,0.02,0.23,0.04H2573.59z"/>
	<path class="st9" d="M1264.38,2007.1c-0.06,0.01-0.12,0.01-0.18,0.02h0.05C1264.3,2007.12,1264.34,2007.11,1264.38,2007.1z"/>
	<path class="st9" d="M1922.74,3291.7c-0.56,1.06-1.47,1.73-2.46,2.07c1.22-0.28,2.28-1.06,2.88-2.19l12.89-24.31l-0.18-0.33
		L1922.74,3291.7z"/>
	<path class="st9" d="M1918.5,3293.9h-0.58c0.63,0.14,1.28,0.14,1.9,0h-0.53H1918.5z"/>
	<path class="st9" d="M1918.21,3293.88c-0.1,0.01-0.19,0.02-0.29,0.02c0,0,0,0,0.01,0h0.58
		C1918.4,3293.9,1918.31,3293.89,1918.21,3293.88z"/>
	<path class="st9" d="M1264.21,2007.13c-0.07,0.02-0.14,0.02-0.21,0.04c0.09-0.02,0.18-0.02,0.27-0.04H1264.21z"/>
	<path class="st9" d="M1919.83,3293.9c0.16-0.03,0.3-0.08,0.45-0.14c-0.32,0.08-0.65,0.14-0.99,0.14H1919.83z"/>
	<path class="st9" d="M1265.15,2007c-0.03,0-0.06,0.01-0.1,0.01C1265.09,2007.02,1265.12,2007,1265.15,2007L1265.15,2007z"/>
	<path class="st9" d="M92.28,2318.95l-129.87-244.91c-0.08-0.15-0.19-0.26-0.28-0.39l130.34,245.81
		C92.4,2319.29,92.37,2319.11,92.28,2318.95z"/>
	<path class="st9" d="M267.3,2649L113,2358.03c-0.09-0.16-0.21-0.29-0.32-0.44l154.78,291.9
		C267.41,2649.33,267.38,2649.15,267.3,2649z"/>
	<path class="st9" d="M1265.53,2007.13c0.36,0,0.71,0.06,1.06,0.14c-0.46-0.16-0.94-0.27-1.43-0.27c-0.03,0-0.07,0.01-0.1,0.01
		c-0.23,0.01-0.45,0.04-0.67,0.09c-0.04,0.01-0.08,0.01-0.12,0.02H1265.53z"/>
	<path class="st9" d="M1264.38,2007.1c0.22-0.04,0.45-0.08,0.67-0.09C1264.82,2007.02,1264.6,2007.06,1264.38,2007.1z"/>
	<path class="st9" d="M286.84,2685.86c-0.1-0.19-0.24-0.34-0.36-0.51l308.17,581.18l0.04-0.08L286.84,2685.86z"/>
	<polygon class="st9" points="629,3266.44 1265.31,2066.44 1248.16,2034.09 611.85,3234.1 	"/>
	<path class="st9" d="M1261.29,2009.33c0.2-0.38,0.44-0.7,0.72-0.99C1261.72,2008.63,1261.48,2008.96,1261.29,2009.33l-13.13,24.76
		l0,0.01L1261.29,2009.33z"/>
	<path class="st9" d="M1269.02,2009.33l13.28,25.05l0.15-0.29l-13.06-24.63c-0.59-1.11-1.62-1.89-2.81-2.18
		C1267.57,2007.61,1268.47,2008.28,1269.02,2009.33z"/>
	<path class="st9" d="M2892.39,2685l-313.55,353.02c-1.91,2.15-4.38,3.31-6.9,3.49c2.98,0.22,6.04-0.94,8.3-3.49L2893.8,2685
		c0.68-0.77,1.55-1.22,2.46-1.39C2894.88,2683.41,2893.43,2683.83,2892.39,2685z"/>
	<path class="st9" d="M1915.01,3226.99l-129.87-244.91c-1.55-2.92,0.57-6.43,3.87-6.43h259.73c2.26,0,3.97,1.65,4.32,3.63
		l18.21-34.35c-0.56,0.25-1.17,0.4-1.81,0.4h-301.18c-1.62,0-3.11-0.9-3.87-2.33l-154.29-290.97c-0.86-1.61-0.62-3.59,0.59-4.96
		l304.21-342.54c2.1-2.37,5.8-2.36,7.9,0l304.19,342.54c0.56,0.63,0.9,1.39,1.03,2.19l17.05-32.16c-1.66,0.76-3.74,0.45-5.09-1.07
		l-313.53-353.02c-4.18-4.71-11.02-4.71-15.21,0l-313.55,353.02c-2.03,2.28-5.71,1.84-7.14-0.86l-308.12-581.08l-0.15,0.29
		l-13.28-25.05c-0.56-1.06-1.45-1.72-2.44-2.06c-0.34-0.09-0.69-0.14-1.06-0.14h-1.27c-0.09,0.02-0.18,0.01-0.27,0.04
		c-0.11,0.03-0.21,0.09-0.32,0.13c-0.26,0.09-0.52,0.19-0.76,0.33c-0.12,0.07-0.23,0.18-0.35,0.27c-0.19,0.14-0.39,0.28-0.56,0.45
		c-0.27,0.29-0.52,0.61-0.72,0.99l-13.13,24.76l17.15,32.34L629,3266.44l-17.15-32.34l636.31-1200.01l0-0.01l-308.08,580.96
		c-1.43,2.7-5.11,3.14-7.14,0.86l-313.53-353.02c-4.18-4.71-11.02-4.71-15.21,0l-313.55,353.02c-1.89,2.12-5.18,1.86-6.78-0.35
		c-0.12-0.17-0.26-0.32-0.36-0.51l-321.18-605.72c-0.75-1.42-2.22-2.31-3.83-2.32c-1.51,0.01-3.01,0.78-3.83,2.32l-13.33,25.13
		L-726.47,3293.9h31.67c1.62,0,3.11-0.9,3.87-2.33l321.21-605.72c1.43-2.7,5.11-3.14,7.14-0.86l313.53,353.02
		c4.18,4.71,11.02,4.71,15.21,0L279.7,2685c1.89-2.12,5.18-1.86,6.78,0.35c0.12,0.17,0.26,0.32,0.36,0.51l307.86,580.59l-0.04,0.08
		l13.28,25.05c0.83,1.57,2.37,2.34,3.91,2.32c0,0,0,0,0,0c0.03,0,0.05-0.01,0.07-0.01c0.36-0.01,0.71-0.05,1.05-0.14
		c0.11-0.03,0.21-0.09,0.32-0.13c0.26-0.09,0.52-0.19,0.76-0.33c0.12-0.07,0.23-0.18,0.34-0.26c0.2-0.14,0.4-0.28,0.57-0.46
		c0.28-0.29,0.53-0.62,0.72-0.99l13.32-25.12l307.88-580.59c1.43-2.7,5.11-3.14,7.14-0.86l313.53,353.02
		c4.18,4.71,11.02,4.71,15.21,0L1586.31,2685c2.03-2.28,5.71-1.84,7.14,0.86l307.59,580.09l19.63-37.02
		C1918.7,3229.81,1916.16,3229.17,1915.01,3226.99z M-175.18,2318.95l129.86-244.91c1.57-2.95,5.64-3.06,7.45-0.39
		c0.09,0.13,0.21,0.24,0.28,0.39l129.87,244.91c0.09,0.17,0.12,0.34,0.19,0.51c1.07,2.8-0.95,5.92-4.06,5.92h-259.73
		C-174.62,2325.38-176.73,2321.86-175.18,2318.95z M266.7,2653.96l-304.21,342.54c-2.1,2.37-5.8,2.37-7.9,0l-304.19-342.54
		c-1.21-1.37-1.45-3.34-0.59-4.96l154.28-290.97c0.76-1.43,2.25-2.33,3.87-2.33h301.18c1.44,0,2.74,0.73,3.55,1.89
		c0.1,0.15,0.23,0.28,0.32,0.44L267.3,2649c0.08,0.16,0.11,0.33,0.17,0.49C268.05,2651,267.8,2652.72,266.7,2653.96z
		 M457.66,2943.31c-0.1-0.15-0.23-0.28-0.32-0.44l-154.29-290.97c-0.08-0.16-0.11-0.33-0.17-0.49c-0.58-1.51-0.33-3.23,0.77-4.47
		l304.21-342.54c2.1-2.36,5.8-2.36,7.9,0l304.19,342.54c1.21,1.37,1.45,3.34,0.59,4.96l-154.28,290.97
		c-0.76,1.43-2.25,2.33-3.87,2.33H461.21C459.77,2945.2,458.47,2944.47,457.66,2943.31z M608.22,3227.26
		c-0.09-0.14-0.21-0.24-0.28-0.39l-129.87-244.91c-0.09-0.17-0.12-0.34-0.19-0.51c-1.07-2.8,0.95-5.92,4.06-5.92h259.73
		c3.3,0,5.41,3.51,3.87,6.43l-129.86,244.91C614.11,3229.82,610.03,3229.93,608.22,3227.26z M1131.43,2318.95l129.86-244.91
		c1.65-3.1,6.09-3.1,7.74,0l129.87,244.91c1.55,2.92-0.57,6.43-3.87,6.43H1135.3C1132,2325.38,1129.88,2321.86,1131.43,2318.95z
		 M1573.32,2653.96l-304.21,342.54c-2.1,2.37-5.8,2.37-7.9,0l-304.19-342.54c-1.21-1.37-1.45-3.34-0.59-4.96l154.28-290.97
		c0.76-1.43,2.25-2.33,3.87-2.33h301.18c1.62,0,3.11,0.9,3.87,2.33L1573.91,2649C1574.77,2650.61,1574.53,2652.59,1573.32,2653.96z"
		/>
	<path class="st9" d="M2242.97,2685.86l-321.21,605.72c-0.71,1.34-2.05,2.2-3.55,2.3c0.1,0.01,0.19,0.02,0.29,0.02h0.79
		c0.34,0,0.67-0.06,0.99-0.14c1-0.33,1.9-1.01,2.46-2.07l13.13-24.76l0.18,0.33l308.32-581.41c0.68-1.29,1.88-2.06,3.17-2.26
		C2245.78,2683.31,2243.9,2684.1,2242.97,2685.86z"/>
	<path class="st9" d="M2575.11,2009.33l321.45,606.23c0.58,0.8,1.38,1.33,2.25,1.6l-309.19-583.11l-13.11-24.72
		c-0.65-1.23-1.74-1.95-2.92-2.2h-1.36C2573.4,2007.39,2574.46,2008.12,2575.11,2009.33z"/>
	<path class="st9" d="M2264.5,2653.96c-1.21-1.37-1.45-3.34-0.59-4.96l154.28-290.97c0.76-1.43,2.25-2.33,3.87-2.33h-1.4
		c-1.62,0-3.11,0.9-3.87,2.33L2262.51,2649c-0.86,1.61-0.62,3.59,0.59,4.96l304.19,342.54c1.22,1.37,2.98,1.93,4.65,1.7
		c-1.21-0.16-2.37-0.71-3.25-1.7L2264.5,2653.96z"/>
	<path class="st9" d="M2915.57,2651.41l154.78,291.9c0.57,0.81,1.37,1.4,2.3,1.69l-157.2-296.46
		C2915.17,2649.47,2915.21,2650.48,2915.57,2651.41z"/>
	<path class="st9" d="M2441.38,2325.38h1.4c-3.3,0-5.41-3.51-3.87-6.43l129.86-244.91c0.68-1.29,1.85-2.03,3.09-2.25
		c-1.71-0.26-3.55,0.48-4.49,2.25l-129.86,244.91C2435.97,2321.86,2438.08,2325.38,2441.38,2325.38z"/>
	<path class="st9" d="M3090.57,2981.45l130.34,245.81c0.59,0.86,1.41,1.43,2.31,1.71l-132.75-250.34
		C3090.21,2979.51,3090.21,2980.5,3090.57,2981.45z"/>
	<path class="st9" d="M2572.01,2007.08c-0.27-0.05-0.54-0.08-0.81-0.07c0.26,0,0.51,0.04,0.76,0.08
		C2571.97,2007.09,2571.99,2007.09,2572.01,2007.08z"/>
	<path class="st9" d="M2572.15,2007.13c0.02,0,0.05-0.01,0.07-0.01h0.01c-0.08-0.02-0.15-0.03-0.23-0.04c-0.02,0-0.03,0-0.05,0.01
		C2572.02,2007.1,2572.08,2007.12,2572.15,2007.13z"/>
	<path class="st9" d="M2572.23,2007.13h-0.01c-0.02,0-0.05,0.01-0.07,0.01c1.22,0.28,2.28,1.07,2.88,2.2l321.18,605.72
		c0.1,0.19,0.24,0.34,0.36,0.51l-321.45-606.23C2574.46,2008.12,2573.4,2007.39,2572.23,2007.13z"/>
	<path class="st9" d="M2915.74,2651.91l154.29,290.97c0.09,0.16,0.21,0.29,0.32,0.44l-154.78-291.9
		C2915.64,2651.58,2915.66,2651.75,2915.74,2651.91z"/>
	<path class="st9" d="M3090.76,2981.96l129.87,244.91c0.08,0.15,0.19,0.26,0.28,0.39l-130.34-245.81
		C3090.64,2981.62,3090.67,2981.79,3090.76,2981.96z"/>
	<path class="st9" d="M3877.08,2007.1c-0.06,0.01-0.12,0.01-0.18,0.02h0.05C3877,2007.12,3877.04,2007.11,3877.08,2007.1z"/>
	<path class="st9" d="M4535.44,3291.7c-0.56,1.06-1.47,1.73-2.46,2.07c1.22-0.28,2.28-1.06,2.88-2.19l12.89-24.31l-0.18-0.33
		L4535.44,3291.7z"/>
	<path class="st9" d="M4527.7,3291.7l-13.11-24.72l-0.15,0.29l12.89,24.31c0.59,1.11,1.62,1.89,2.81,2.18
		C4529.16,3293.42,4528.26,3292.75,4527.7,3291.7z"/>
	<path class="st9" d="M4531.2,3293.9h-0.58c0.63,0.14,1.28,0.14,1.9,0h-0.53H4531.2z"/>
	<path class="st9" d="M4530.14,3293.76c0.16,0.05,0.31,0.11,0.48,0.14h0.58C4530.84,3293.9,4530.48,3293.84,4530.14,3293.76z"/>
	<path class="st9" d="M3876.9,2007.13c-0.07,0.02-0.14,0.02-0.21,0.04c0.09-0.02,0.18-0.02,0.27-0.04H3876.9z"/>
	<path class="st9" d="M4532.52,3293.9c0.16-0.03,0.3-0.08,0.45-0.14c-0.32,0.08-0.65,0.14-0.99,0.14H4532.52z"/>
	<path class="st9" d="M3877.85,2007c-0.03,0-0.06,0.01-0.1,0.01C3877.78,2007.02,3877.82,2007,3877.85,2007L3877.85,2007z"/>
	<path class="st9" d="M2575.11,2074.04c-0.08-0.15-0.19-0.26-0.28-0.39l130.34,245.81c-0.07-0.17-0.1-0.34-0.19-0.51
		L2575.11,2074.04z"/>
	<path class="st9" d="M2879.99,2649l-154.29-290.97c-0.09-0.16-0.21-0.29-0.32-0.44l154.78,291.9
		C2880.1,2649.33,2880.08,2649.15,2879.99,2649z"/>
	<path class="st9" d="M3878.23,2007.13c0.36,0,0.71,0.06,1.06,0.14c-0.46-0.16-0.94-0.27-1.43-0.27c-0.03,0-0.07,0.01-0.1,0.01
		c-0.23,0.01-0.45,0.04-0.67,0.09c-0.04,0.01-0.08,0.01-0.12,0.02H3878.23z"/>
	<path class="st9" d="M3877.08,2007.1c0.22-0.04,0.45-0.08,0.67-0.09C3877.52,2007.02,3877.3,2007.06,3877.08,2007.1z"/>
	<path class="st9" d="M2899.53,2685.86c-0.1-0.19-0.24-0.34-0.36-0.51l308.17,581.18l0.04-0.08L2899.53,2685.86z"/>
	<polygon class="st9" points="3242.4,3265.12 3878,2066.44 3860.85,2034.09 3225.25,3232.78 	"/>
	<polygon class="st9" points="3224.54,3234.1 3241.69,3266.44 3242.4,3265.12 3225.25,3232.78 	"/>
	<path class="st9" d="M3873.98,2009.33c0.2-0.38,0.44-0.7,0.72-0.99C3874.42,2008.63,3874.17,2008.96,3873.98,2009.33l-13.13,24.76
		l0,0.01L3873.98,2009.33z"/>
	<path class="st9" d="M3881.72,2009.33l13.28,25.05l0.15-0.29l-13.06-24.63c-0.59-1.11-1.62-1.89-2.81-2.18
		C3880.27,2007.61,3881.16,2008.28,3881.72,2009.33z"/>
	<path class="st9" d="M2916.34,2646.95l304.21-342.54c2.1-2.36,5.8-2.36,7.9,0l304.19,342.54c1.21,1.37,1.45,3.34,0.59,4.96
		l-154.28,290.97c-0.76,1.43-2.25,2.33-3.87,2.33h-301.18c-0.43,0-0.85-0.07-1.25-0.2l17.83,33.62c0.52-1.73,2.1-3.1,4.15-3.1
		h259.73c3.3,0,5.41,3.51,3.87,6.43l-129.86,244.91c-1.06,2-3.26,2.69-5.14,2.1l2.02,3.81l635.61-1198.68l0-0.01l-308.08,580.96
		c-1.43,2.7-5.11,3.14-7.14,0.86l-313.53-353.02c-4.18-4.71-11.02-4.71-15.21,0l-313.55,353.02c-1.21,1.36-2.99,1.73-4.53,1.25
		l16.64,31.39C2915.62,2647.97,2915.92,2647.42,2916.34,2646.95z"/>
	<path class="st9" d="M3222.12,3291.57l-321.18-605.72c-0.95-1.79-2.89-2.58-4.68-2.25c1.13,0.16,2.2,0.74,2.92,1.74
		c0.12,0.17,0.26,0.32,0.36,0.51l307.86,580.59l-0.04,0.08l13.28,25.05c0.83,1.57,2.37,2.34,3.91,2.32c0,0,0,0,0,0
		c0.03,0,0.05-0.01,0.07-0.01c0.21-0.01,0.41-0.03,0.61-0.06C3223.92,3293.6,3222.76,3292.78,3222.12,3291.57z"/>
	<path class="st9" d="M2565.04,3038.02L2251.51,2685c-1.06-1.19-2.57-1.63-3.97-1.41c0.95,0.15,1.86,0.61,2.57,1.41l313.53,353.02
		c2.27,2.55,5.32,3.71,8.3,3.49C2569.42,3041.33,2566.95,3040.17,2565.04,3038.02z"/>
	<path class="st9" d="M5202.31,2034.05l-13.11-24.72c-0.65-1.23-1.74-1.95-2.92-2.2h-1.37c-0.34,0-0.67,0.06-0.99,0.14
		c-1.22,0.28-2.28,1.06-2.88,2.19l-321.21,605.72c-1.43,2.7-5.11,3.14-7.14,0.86l-313.53-353.02c-4.18-4.71-11.02-4.71-15.21,0
		l-313.55,353.02c-2.03,2.28-5.71,1.84-7.14-0.86l-308.12-581.08l-0.15,0.29l-13.28-25.05c-0.56-1.06-1.45-1.72-2.44-2.06
		c-0.34-0.09-0.69-0.14-1.06-0.14h-1.27c-0.09,0.02-0.18,0.01-0.27,0.04c-0.11,0.03-0.21,0.09-0.32,0.13
		c-0.26,0.09-0.52,0.19-0.76,0.33c-0.12,0.07-0.23,0.18-0.35,0.27c-0.19,0.14-0.39,0.28-0.56,0.45c-0.27,0.29-0.52,0.61-0.72,0.99
		l-13.13,24.76l17.15,32.34L3242.4,3265.12l0,0.01l307.18-579.27c1.43-2.7,5.11-3.14,7.14-0.86l313.53,353.02
		c4.18,4.71,11.02,4.71,15.21,0L4199.01,2685c2.03-2.28,5.71-1.84,7.14,0.86l308.29,581.41l0.15-0.29l13.11,24.72
		c0.56,1.05,1.45,1.72,2.44,2.06c0.34,0.09,0.69,0.14,1.06,0.14h0.79c0.34,0,0.67-0.06,0.99-0.14c1-0.33,1.9-1.01,2.46-2.07
		l13.13-24.76l0.18,0.33l308.32-581.41c1.43-2.7,5.11-3.14,7.14-0.86l313.53,353.02c4.18,4.71,11.02,4.71,15.21,0L5506.49,2685
		c2.03-2.28,5.71-1.84,7.14,0.86l321.18,605.72c0.76,1.43,2.25,2.33,3.87,2.33h31.67L5202.31,2034.05z M3744.13,2318.95
		l129.86-244.91c1.65-3.1,6.09-3.1,7.74,0l129.87,244.91c1.55,2.92-0.57,6.43-3.87,6.43h-259.73
		C3744.69,2325.38,3742.58,2321.86,3744.13,2318.95z M4186.01,2653.96l-304.21,342.54c-2.1,2.37-5.8,2.37-7.9,0l-304.19-342.54
		c-1.21-1.37-1.45-3.34-0.59-4.96l154.28-290.97c0.76-1.43,2.25-2.33,3.87-2.33h301.18c1.62,0,3.11,0.9,3.87,2.33L4186.61,2649
		C4187.46,2650.61,4187.23,2652.59,4186.01,2653.96z M4665.3,2982.08l-129.86,244.91c-1.64,3.1-6.09,3.1-7.74,0l-129.87-244.91
		c-1.55-2.92,0.57-6.43,3.87-6.43h259.73C4664.73,2975.65,4666.84,2979.16,4665.3,2982.08z M4840.3,2652.03L4686.02,2943
		c-0.76,1.43-2.25,2.33-3.87,2.33h-301.18c-1.62,0-3.11-0.9-3.87-2.33l-154.29-290.97c-0.86-1.61-0.62-3.59,0.59-4.96l304.21-342.54
		c2.1-2.37,5.8-2.36,7.9,0l304.19,342.54C4840.92,2648.44,4841.16,2650.41,4840.3,2652.03z M5051.61,2318.95l129.86-244.91
		c1.65-3.1,6.09-3.1,7.74,0l129.87,244.91c1.55,2.92-0.57,6.43-3.87,6.43h-259.73C5052.18,2325.38,5050.06,2321.86,5051.61,2318.95z
		 M5493.5,2653.96l-304.21,342.54c-2.1,2.37-5.8,2.37-7.9,0l-304.19-342.54c-1.21-1.37-1.45-3.34-0.59-4.96l154.28-290.97
		c0.76-1.43,2.25-2.33,3.87-2.33h301.18c1.62,0,3.11,0.9,3.87,2.33L5494.09,2649C5494.95,2650.61,5494.71,2652.59,5493.5,2653.96z"
		/>
	<path class="st9" d="M2247.15,2615.17l321.21-605.72c0.6-1.13,1.66-1.91,2.88-2.19c0.24-0.08,0.48-0.13,0.72-0.17
		c-0.25-0.05-0.5-0.08-0.76-0.08c-1.51,0.01-3.01,0.78-3.83,2.32l-13.33,25.13L2245.1,2617.1
		C2245.94,2616.72,2246.67,2616.07,2247.15,2615.17z"/>
	<path class="st9" d="M1922.74,3226.99l129.86-244.91c0.49-0.92,0.61-1.89,0.45-2.8l-132.38,249.65
		C1921.51,3228.55,1922.25,3227.91,1922.74,3226.99z"/>
	<path class="st9" d="M2727.1,2358.03c-0.76-1.43-2.25-2.33-3.87-2.33h-1.4c1.44,0,2.74,0.73,3.55,1.89
		c0.1,0.15,0.23,0.28,0.32,0.44L2879.99,2649c0.08,0.16,0.11,0.33,0.17,0.49c0.58,1.51,0.33,3.23-0.77,4.47l-304.21,342.54
		c-0.88,0.99-2.04,1.54-3.25,1.7c1.67,0.22,3.43-0.33,4.65-1.7l304.21-342.54c1.21-1.37,1.45-3.34,0.59-4.96L2727.1,2358.03z"/>
	<path class="st9" d="M2073.32,2943l154.28-290.97c0.46-0.87,0.59-1.84,0.44-2.77l-156.78,295.67
		C2072.13,2944.53,2072.86,2943.87,2073.32,2943z"/>
	<path class="st9" d="M2574.82,2073.65c0.09,0.13,0.21,0.24,0.28,0.39l129.87,244.91c0.09,0.17,0.12,0.34,0.19,0.51
		c1.07,2.8-0.95,5.92-4.06,5.92h1.4c3.3,0,5.41-3.51,3.87-6.43l-129.87-244.91c-0.96-1.82-2.89-2.56-4.65-2.25
		C2573.01,2071.96,2574.1,2072.58,2574.82,2073.65z"/>
	<path class="st9" d="M2571.23,2007.26c0.3-0.07,0.6-0.12,0.91-0.13c-0.06-0.01-0.13-0.03-0.19-0.04
		C2571.71,2007.13,2571.47,2007.18,2571.23,2007.26z"/>
	<path class="st9" d="M1917.45,3293.76c-0.99-0.34-1.88-1.01-2.44-2.06l-13.11-24.72l-0.15,0.29l12.89,24.31
		C1915.22,3292.68,1916.26,3293.46,1917.45,3293.76z"/>
	<path class="st9" d="M1917.45,3293.76c0.16,0.05,0.31,0.11,0.47,0.14c0.1,0,0.2-0.01,0.29-0.02
		C1917.95,3293.86,1917.7,3293.82,1917.45,3293.76z"/>
	<path class="st9" d="M3241.69,3266.44l-17.15-32.34l0.7-1.32l-2.02-3.81c-0.9-0.28-1.72-0.85-2.31-1.71
		c-0.09-0.14-0.21-0.24-0.28-0.39l-129.87-244.91c-0.09-0.17-0.12-0.34-0.19-0.51c-0.36-0.95-0.36-1.93-0.09-2.82l-17.83-33.62
		c-0.92-0.29-1.73-0.88-2.3-1.69c-0.1-0.15-0.23-0.28-0.32-0.44l-154.29-290.97c-0.08-0.16-0.11-0.33-0.17-0.49
		c-0.36-0.93-0.4-1.94-0.12-2.87l-16.64-31.39c-0.87-0.27-1.67-0.8-2.25-1.6c-0.12-0.17-0.26-0.32-0.36-0.51l-321.18-605.72
		c-0.6-1.13-1.66-1.92-2.88-2.2c-0.31,0.01-0.62,0.06-0.91,0.13c-1.22,0.28-2.28,1.06-2.88,2.19l-321.21,605.72
		c-0.48,0.9-1.21,1.55-2.05,1.93l-17.05,32.16c0.16,0.93,0.02,1.9-0.44,2.77L2073.32,2943c-0.46,0.87-1.19,1.54-2.06,1.93
		l-18.21,34.35c0.16,0.91,0.04,1.88-0.45,2.8l-129.86,244.91c-0.49,0.92-1.23,1.57-2.07,1.94l-19.63,37.02l0.7,1.32l0.15-0.29
		l13.11,24.72c0.56,1.05,1.45,1.72,2.44,2.06c0.25,0.06,0.51,0.1,0.76,0.12c1.49-0.11,2.84-0.97,3.55-2.3l321.21-605.72
		c0.93-1.75,2.81-2.55,4.57-2.26c1.4-0.23,2.91,0.22,3.97,1.41l313.53,353.02c1.91,2.15,4.38,3.31,6.9,3.49
		c2.52-0.18,4.99-1.34,6.9-3.49L2892.39,2685c1.03-1.16,2.49-1.59,3.86-1.39c1.79-0.33,3.73,0.46,4.68,2.25l321.18,605.72
		c0.64,1.21,1.8,2.02,3.12,2.25c0.15-0.02,0.29-0.05,0.43-0.09c0.11-0.03,0.21-0.09,0.32-0.13c0.26-0.09,0.52-0.19,0.76-0.33
		c0.12-0.07,0.23-0.18,0.34-0.26c0.2-0.14,0.4-0.28,0.57-0.46c0.28-0.29,0.53-0.62,0.72-0.99L3241.69,3266.44l0.7-1.31l0-0.01
		L3241.69,3266.44z M2437.51,2318.95l129.86-244.91c0.94-1.77,2.78-2.51,4.49-2.25c1.76-0.31,3.68,0.43,4.65,2.25l129.87,244.91
		c1.55,2.92-0.57,6.43-3.87,6.43h-1.4h-258.33h-1.4C2438.08,2325.38,2435.97,2321.86,2437.51,2318.95z M2880.8,2653.96
		l-304.21,342.54c-1.22,1.37-2.98,1.93-4.65,1.7c-1.67,0.22-3.43-0.33-4.65-1.7l-304.19-342.54c-1.21-1.37-1.45-3.34-0.59-4.96
		l154.28-290.97c0.76-1.43,2.25-2.33,3.87-2.33h1.4h299.77h1.4c1.62,0,3.11,0.9,3.87,2.33L2881.4,2649
		C2882.25,2650.61,2882.01,2652.59,2880.8,2653.96z"/>
</g>
<g>
	<path class="st9" d="M19.18,3773.27l154.29,290.97c0.09,0.16,0.21,0.29,0.32,0.44l-154.78-291.9
		C19.08,3772.94,19.1,3773.11,19.18,3773.27z"/>
	<path class="st9" d="M194.2,4103.32l129.87,244.91c0.08,0.15,0.19,0.26,0.28,0.39l-130.34-245.81
		C194.08,4102.98,194.11,4103.15,194.2,4103.32z"/>
	<path class="st9" d="M2289.73,3128.49c-0.52-0.11-1.06-0.12-1.59-0.04c0.08,0.01,0.15,0.03,0.23,0.04H2289.73z"/>
	<path class="st9" d="M980.52,3128.46c-0.06,0.01-0.12,0.01-0.18,0.02h0.05C980.44,3128.48,980.48,3128.47,980.52,3128.46z"/>
	<path class="st9" d="M980.34,3128.49c-0.07,0.02-0.14,0.02-0.21,0.04c0.09-0.02,0.18-0.02,0.27-0.04H980.34z"/>
	<path class="st9" d="M981.29,3128.36c-0.03,0-0.06,0.01-0.1,0.01C981.22,3128.38,981.26,3128.36,981.29,3128.36L981.29,3128.36z"/>
	<path class="st9" d="M981.67,3128.49c0.36,0,0.71,0.06,1.06,0.14c-0.46-0.16-0.94-0.27-1.43-0.27c-0.03,0-0.07,0.01-0.1,0.01
		c-0.23,0.01-0.45,0.04-0.67,0.09c-0.04,0.01-0.08,0.01-0.12,0.02H981.67z"/>
	<path class="st9" d="M980.52,3128.46c0.22-0.04,0.45-0.08,0.67-0.09C980.96,3128.38,980.74,3128.42,980.52,3128.46z"/>
	<path class="st9" d="M2.97,3807.21c-0.1-0.19-0.24-0.34-0.36-0.51l308.17,581.18l0.04-0.08L2.97,3807.21z"/>
	<polygon class="st9" points="345.13,4387.8 981.44,3187.79 964.29,3155.45 327.98,4355.46 	"/>
	<path class="st9" d="M977.42,3130.69c0.2-0.38,0.44-0.7,0.72-0.99C977.86,3129.99,977.61,3130.32,977.42,3130.69l-13.13,24.76
		l0,0.01L977.42,3130.69z"/>
	<path class="st9" d="M985.16,3130.69l13.28,25.05l0.15-0.29l-13.06-24.63c-0.59-1.11-1.62-1.89-2.81-2.18
		C983.71,3128.97,984.6,3129.63,985.16,3130.69z"/>
	<path class="st9" d="M1631.14,4348.35l-129.87-244.91c-1.55-2.92,0.57-6.43,3.87-6.43h259.73c2.26,0,3.97,1.65,4.32,3.63
		l18.21-34.35c-0.56,0.25-1.17,0.4-1.81,0.4h-301.18c-1.62,0-3.11-0.9-3.87-2.33l-154.29-290.97c-0.86-1.61-0.62-3.59,0.59-4.96
		l304.21-342.54c2.1-2.37,5.8-2.36,7.9,0l304.19,342.54c0.56,0.63,0.9,1.39,1.03,2.19l17.05-32.16c-1.66,0.76-3.74,0.45-5.09-1.07
		l-313.53-353.02c-4.18-4.71-11.02-4.71-15.21,0l-313.55,353.02c-2.03,2.28-5.71,1.84-7.14-0.86L998.6,3155.45l-0.15,0.29
		l-13.28-25.05c-0.56-1.06-1.45-1.72-2.44-2.06c-0.34-0.09-0.69-0.14-1.06-0.14h-1.27c-0.09,0.02-0.18,0.01-0.27,0.04
		c-0.11,0.03-0.21,0.09-0.32,0.13c-0.26,0.09-0.52,0.19-0.76,0.33c-0.12,0.07-0.23,0.18-0.35,0.27c-0.19,0.14-0.39,0.28-0.56,0.45
		c-0.27,0.29-0.52,0.61-0.72,0.99l-13.13,24.76l17.15,32.34L345.13,4387.8l-17.15-32.34l636.31-1200.01l0-0.01l-308.08,580.96
		c-1.43,2.7-5.11,3.14-7.14,0.86l-313.53-353.02c-4.18-4.71-11.02-4.71-15.21,0L6.78,3737.26c-1.89,2.12-5.18,1.86-6.78-0.35
		c-0.12-0.17-0.26-0.32-0.36-0.51l-321.18-605.72c-0.75-1.42-2.22-2.31-3.83-2.32c-1.51,0.01-3.01,0.78-3.83,2.32l-13.33,25.13
		l-667.82,1259.44h31.67c1.62,0,3.11-0.9,3.87-2.33l321.21-605.72c1.43-2.7,5.11-3.14,7.14-0.86l313.53,353.02
		c4.18,4.71,11.02,4.71,15.21,0l313.55-353.02c1.89-2.12,5.18-1.86,6.78,0.35c0.12,0.17,0.26,0.32,0.36,0.51l307.86,580.59
		l-0.04,0.08l13.28,25.05c0.83,1.57,2.37,2.34,3.91,2.32c0,0,0,0,0,0c0.03,0,0.05-0.01,0.07-0.01c0.36-0.01,0.71-0.05,1.05-0.14
		c0.11-0.03,0.21-0.09,0.32-0.13c0.26-0.09,0.52-0.19,0.76-0.33c0.12-0.07,0.23-0.18,0.34-0.26c0.2-0.14,0.4-0.28,0.57-0.46
		c0.28-0.29,0.53-0.62,0.72-0.99l13.32-25.12l307.88-580.59c1.43-2.7,5.11-3.14,7.14-0.86l313.53,353.02
		c4.18,4.71,11.02,4.71,15.21,0l313.55-353.02c2.03-2.28,5.71-1.84,7.14,0.86l307.59,580.09l19.63-37.02
		C1634.83,4351.17,1632.3,4350.52,1631.14,4348.35z M-459.05,3440.31l129.86-244.91c1.57-2.95,5.64-3.06,7.45-0.39
		c0.09,0.14,0.21,0.24,0.28,0.39l129.87,244.91c0.09,0.17,0.12,0.34,0.19,0.51c1.07,2.8-0.95,5.92-4.06,5.92h-259.73
		C-458.48,3446.74-460.59,3443.22-459.05,3440.31z M-17.16,3775.31l-304.21,342.54c-2.1,2.37-5.8,2.37-7.9,0l-304.19-342.54
		c-1.21-1.37-1.45-3.34-0.59-4.96l154.28-290.97c0.76-1.43,2.25-2.33,3.87-2.33h301.18c1.44,0,2.74,0.73,3.55,1.89
		c0.1,0.15,0.23,0.28,0.32,0.44l154.29,290.97c0.08,0.16,0.11,0.33,0.17,0.49C-15.81,3772.36-16.07,3774.08-17.16,3775.31z
		 M173.79,4064.67c-0.1-0.15-0.23-0.28-0.32-0.44L19.18,3773.27c-0.08-0.16-0.11-0.33-0.17-0.49c-0.58-1.51-0.33-3.23,0.77-4.47
		l304.21-342.54c2.1-2.36,5.8-2.36,7.9,0l304.19,342.54c1.21,1.37,1.45,3.34,0.59,4.96l-154.28,290.97
		c-0.76,1.43-2.25,2.33-3.87,2.33H177.35C175.91,4066.56,174.61,4065.83,173.79,4064.67z M324.36,4348.62
		c-0.09-0.13-0.21-0.24-0.28-0.39L194.2,4103.32c-0.09-0.17-0.12-0.34-0.19-0.51c-1.07-2.8,0.95-5.92,4.06-5.92H457.8
		c3.3,0,5.41,3.51,3.87,6.43l-129.86,244.91C330.24,4351.18,326.17,4351.29,324.36,4348.62z M847.57,3440.31l129.86-244.91
		c1.65-3.1,6.09-3.1,7.74,0l129.87,244.91c1.55,2.92-0.57,6.43-3.87,6.43H851.43C848.13,3446.74,846.02,3443.22,847.57,3440.31z
		 M1289.45,3775.31l-304.21,342.54c-2.1,2.37-5.8,2.37-7.9,0l-304.19-342.54c-1.21-1.37-1.45-3.34-0.59-4.96l154.28-290.97
		c0.76-1.43,2.25-2.33,3.87-2.33h301.18c1.62,0,3.11,0.9,3.87,2.33l154.29,290.97C1290.91,3771.97,1290.67,3773.95,1289.45,3775.31z
		"/>
	<path class="st9" d="M2291.24,3130.69l321.45,606.23c0.58,0.8,1.38,1.33,2.25,1.6l-309.19-583.11l-13.11-24.72
		c-0.65-1.23-1.74-1.95-2.92-2.2h-1.36C2289.53,3128.75,2290.6,3129.48,2291.24,3130.69z"/>
	<path class="st9" d="M2608.53,3806.36l-313.55,353.02c-1.91,2.15-4.38,3.31-6.9,3.49c2.98,0.22,6.04-0.94,8.3-3.49l313.55-353.02
		c0.68-0.77,1.55-1.22,2.46-1.39C2611.02,3804.77,2609.56,3805.19,2608.53,3806.36z"/>
	<path class="st9" d="M1959.1,3807.21l-321.21,605.72c-0.71,1.34-2.05,2.19-3.55,2.3c0.1,0.01,0.19,0.02,0.29,0.02h0.79
		c0.34,0,0.67-0.06,0.99-0.14c1-0.33,1.9-1.01,2.46-2.07l13.13-24.76l0.18,0.33l308.32-581.41c0.68-1.29,1.88-2.06,3.17-2.26
		C1961.91,3804.67,1960.03,3805.46,1959.1,3807.21z"/>
	<path class="st9" d="M1980.64,3775.31c-1.21-1.37-1.45-3.34-0.59-4.96l154.28-290.97c0.76-1.43,2.25-2.33,3.87-2.33h-1.4
		c-1.62,0-3.11,0.9-3.87,2.33l-154.28,290.97c-0.86,1.61-0.62,3.59,0.59,4.96l304.19,342.54c1.22,1.37,2.98,1.93,4.65,1.7
		c-1.21-0.16-2.37-0.71-3.25-1.7L1980.64,3775.31z"/>
	<path class="st9" d="M2631.71,3772.77l154.78,291.9c0.57,0.81,1.38,1.4,2.3,1.69l-157.2-296.46
		C2631.31,3770.83,2631.35,3771.84,2631.71,3772.77z"/>
	<path class="st9" d="M2157.51,3446.74h1.4c-3.3,0-5.41-3.51-3.87-6.43l129.86-244.91c0.68-1.29,1.85-2.03,3.09-2.25
		c-1.71-0.26-3.55,0.48-4.49,2.25l-129.86,244.91C2152.1,3443.22,2154.21,3446.74,2157.51,3446.74z"/>
	<path class="st9" d="M2806.71,4102.81l130.34,245.81c0.59,0.86,1.41,1.43,2.31,1.71l-132.75-250.34
		C2806.35,4100.87,2806.35,4101.86,2806.71,4102.81z"/>
	<path class="st9" d="M2288.14,3128.44c-0.27-0.05-0.54-0.08-0.81-0.07c0.26,0,0.51,0.04,0.76,0.08
		C2288.11,3128.45,2288.12,3128.45,2288.14,3128.44z"/>
	<path class="st9" d="M2288.28,3128.49c0.02,0,0.05-0.01,0.07-0.01h0.01c-0.08-0.02-0.15-0.03-0.23-0.04c-0.02,0-0.03,0-0.05,0.01
		C2288.15,3128.46,2288.22,3128.48,2288.28,3128.49z"/>
	<path class="st9" d="M2288.37,3128.49h-0.01c-0.02,0-0.05,0.01-0.07,0.01c1.22,0.28,2.28,1.07,2.88,2.2l321.18,605.72
		c0.1,0.19,0.24,0.34,0.36,0.51l-321.45-606.23C2290.6,3129.48,2289.53,3128.75,2288.37,3128.49z"/>
	<path class="st9" d="M2631.88,3773.27l154.29,290.97c0.09,0.16,0.21,0.29,0.32,0.44l-154.78-291.9
		C2631.77,3772.94,2631.8,3773.11,2631.88,3773.27z"/>
	<path class="st9" d="M2806.9,4103.32l129.87,244.91c0.08,0.15,0.19,0.26,0.28,0.39l-130.34-245.81
		C2806.77,4102.98,2806.81,4103.15,2806.9,4103.32z"/>
	<path class="st9" d="M4902.42,3128.49c-0.78-0.17-1.59-0.12-2.36,0.14c0.32-0.07,0.65-0.14,0.99-0.14H4902.42z"/>
	<path class="st9" d="M3593.21,3128.46c-0.06,0.01-0.12,0.01-0.18,0.02h0.05C3593.13,3128.48,3593.17,3128.47,3593.21,3128.46z"/>
	<path class="st9" d="M3593.04,3128.49c-0.07,0.02-0.14,0.02-0.21,0.04c0.09-0.02,0.18-0.02,0.27-0.04H3593.04z"/>
	<path class="st9" d="M3593.98,3128.36c-0.03,0-0.06,0.01-0.1,0.01C3593.92,3128.38,3593.95,3128.36,3593.98,3128.36
		L3593.98,3128.36z"/>
	<path class="st9" d="M2291.24,3195.4c-0.08-0.15-0.19-0.26-0.28-0.39l130.34,245.81c-0.07-0.17-0.1-0.34-0.19-0.51L2291.24,3195.4z
		"/>
	<path class="st9" d="M2596.13,3770.36l-154.29-290.97c-0.09-0.16-0.21-0.29-0.32-0.44l154.78,291.9
		C2596.24,3770.69,2596.21,3770.51,2596.13,3770.36z"/>
	<path class="st9" d="M3594.36,3128.49c0.36,0,0.71,0.06,1.06,0.14c-0.46-0.16-0.94-0.27-1.43-0.27c-0.03,0-0.07,0.01-0.1,0.01
		c-0.23,0.01-0.45,0.04-0.67,0.09c-0.04,0.01-0.08,0.01-0.12,0.02H3594.36z"/>
	<path class="st9" d="M3593.21,3128.46c0.22-0.04,0.45-0.08,0.67-0.09C3593.66,3128.38,3593.43,3128.42,3593.21,3128.46z"/>
	<path class="st9" d="M2615.67,3807.21c-0.1-0.19-0.24-0.34-0.36-0.51l308.17,581.18l0.04-0.08L2615.67,3807.21z"/>
	<polygon class="st9" points="2958.53,4386.48 3594.14,3187.79 3576.99,3155.45 2941.38,4354.14 	"/>
	<path class="st9" d="M3590.12,3130.69c0.2-0.38,0.44-0.7,0.72-0.99C3590.55,3129.99,3590.31,3130.32,3590.12,3130.69l-13.13,24.76
		l0,0.01L3590.12,3130.69z"/>
	<path class="st9" d="M3597.86,3130.69l13.28,25.05l0.15-0.29l-13.06-24.63c-0.59-1.11-1.62-1.89-2.81-2.18
		C3596.4,3128.97,3597.3,3129.63,3597.86,3130.69z"/>
	<path class="st9" d="M1963.28,3736.53l321.21-605.72c0.6-1.13,1.66-1.91,2.88-2.19c0.24-0.08,0.48-0.13,0.72-0.17
		c-0.25-0.05-0.5-0.08-0.76-0.08c-1.51,0.01-3.01,0.78-3.83,2.32l-13.33,25.13l-308.94,582.63
		C1962.07,3738.08,1962.8,3737.43,1963.28,3736.53z"/>
	<path class="st9" d="M2632.47,3768.31l304.21-342.54c2.1-2.36,5.8-2.36,7.9,0l304.19,342.54c1.21,1.37,1.45,3.34,0.59,4.96
		l-154.28,290.97c-0.76,1.43-2.25,2.33-3.87,2.33h-301.18c-0.43,0-0.85-0.07-1.25-0.2l17.83,33.62c0.52-1.73,2.1-3.1,4.15-3.1
		h259.73c3.3,0,5.41,3.51,3.87,6.43l-129.86,244.91c-1.06,2-3.26,2.69-5.14,2.1l2.02,3.81l635.61-1198.68l0-0.01l-308.08,580.96
		c-1.43,2.7-5.11,3.14-7.14,0.86l-313.53-353.02c-4.18-4.71-11.02-4.71-15.21,0l-313.55,353.02c-1.21,1.36-2.99,1.73-4.53,1.25
		l16.64,31.39C2631.76,3769.33,2632.05,3768.78,2632.47,3768.31z"/>
	<path class="st9" d="M4918.45,3155.41l-13.11-24.72c-0.65-1.23-1.74-1.95-2.92-2.2h-1.37c-0.34,0-0.67,0.06-0.99,0.14
		c-1.22,0.28-2.28,1.06-2.88,2.19l-321.21,605.72c-1.43,2.7-5.11,3.14-7.14,0.86l-313.53-353.02c-4.18-4.71-11.02-4.71-15.21,0
		l-313.55,353.02c-2.03,2.28-5.71,1.84-7.14-0.86l-308.12-581.08l-0.15,0.29l-13.28-25.05c-0.56-1.06-1.45-1.72-2.44-2.06
		c-0.34-0.09-0.69-0.14-1.06-0.14h-1.27c-0.09,0.02-0.18,0.01-0.27,0.04c-0.11,0.03-0.21,0.09-0.32,0.13
		c-0.26,0.09-0.52,0.19-0.76,0.33c-0.12,0.07-0.23,0.18-0.35,0.27c-0.19,0.14-0.39,0.28-0.56,0.45c-0.27,0.29-0.52,0.61-0.72,0.99
		l-13.13,24.76l17.15,32.34l-635.61,1198.68l0,0.01l307.18-579.27c1.43-2.7,5.11-3.14,7.14-0.86l313.53,353.02
		c4.18,4.71,11.02,4.71,15.21,0l313.55-353.02c2.03-2.28,5.71-1.84,7.14,0.86l308.29,581.41l0.15-0.29l13.11,24.72
		c0.56,1.06,1.45,1.72,2.44,2.06c0.34,0.09,0.69,0.15,1.06,0.15h0.79c0.34,0,0.67-0.06,0.99-0.14c1-0.33,1.9-1.01,2.46-2.07
		l13.13-24.76l0.18,0.33l308.32-581.41c1.43-2.7,5.11-3.14,7.14-0.86l313.53,353.02c4.18,4.71,11.02,4.71,15.21,0l313.55-353.02
		c2.03-2.28,5.71-1.84,7.14,0.86l321.18,605.72c0.76,1.43,2.25,2.33,3.87,2.33h31.67L4918.45,3155.41z M3460.26,3440.31
		l129.86-244.91c1.65-3.1,6.09-3.1,7.74,0l129.87,244.91c1.55,2.92-0.57,6.43-3.87,6.43h-259.73
		C3460.83,3446.74,3458.72,3443.22,3460.26,3440.31z M3902.15,3775.31l-304.21,342.54c-2.1,2.37-5.8,2.37-7.9,0l-304.19-342.54
		c-1.21-1.37-1.45-3.34-0.59-4.96l154.28-290.97c0.76-1.43,2.25-2.33,3.87-2.33h301.18c1.62,0,3.11,0.9,3.87,2.33l154.29,290.97
		C3903.6,3771.97,3903.36,3773.95,3902.15,3775.31z M4381.43,4103.44l-129.86,244.91c-1.65,3.1-6.09,3.1-7.74,0l-129.87-244.91
		c-1.55-2.92,0.57-6.43,3.87-6.43h259.73C4380.86,4097.01,4382.98,4100.52,4381.43,4103.44z M4556.44,3773.39l-154.28,290.97
		c-0.76,1.43-2.25,2.33-3.87,2.33h-301.18c-1.62,0-3.11-0.9-3.87-2.33l-154.29-290.97c-0.86-1.61-0.62-3.59,0.59-4.96l304.21-342.54
		c2.1-2.37,5.8-2.36,7.9,0l304.19,342.54C4557.06,3769.8,4557.29,3771.77,4556.44,3773.39z M4767.74,3440.31l129.86-244.91
		c1.65-3.1,6.09-3.1,7.74,0l129.87,244.91c1.55,2.92-0.57,6.43-3.87,6.43h-259.73C4768.31,3446.74,4766.2,3443.22,4767.74,3440.31z
		 M5209.63,3775.31l-304.21,342.54c-2.1,2.37-5.8,2.37-7.9,0l-304.19-342.54c-1.21-1.37-1.45-3.34-0.59-4.96l154.28-290.97
		c0.76-1.43,2.25-2.33,3.87-2.33h301.18c1.62,0,3.11,0.9,3.87,2.33l154.29,290.97C5211.08,3771.97,5210.85,3773.95,5209.63,3775.31z
		"/>
	<path class="st9" d="M2281.17,4159.38l-313.53-353.02c-1.06-1.19-2.57-1.63-3.97-1.41c0.95,0.15,1.86,0.61,2.57,1.41l313.53,353.02
		c2.27,2.55,5.32,3.71,8.3,3.49C2285.56,4162.69,2283.09,4161.53,2281.17,4159.38z"/>
	<path class="st9" d="M2938.25,4412.93l-321.18-605.72c-0.95-1.79-2.89-2.58-4.68-2.25c1.13,0.16,2.2,0.74,2.92,1.74
		c0.12,0.17,0.26,0.32,0.36,0.51l307.86,580.59l-0.04,0.08l13.28,25.05c0.83,1.57,2.37,2.34,3.91,2.32c0,0,0,0,0,0
		c0.03,0,0.05-0.01,0.07-0.01c0.21-0.01,0.41-0.03,0.61-0.06C2940.05,4414.96,2938.89,4414.14,2938.25,4412.93z"/>
	<path class="st9" d="M1638.88,4348.35l129.86-244.91c0.49-0.92,0.61-1.89,0.45-2.8l-132.38,249.65
		C1637.65,4349.91,1638.39,4349.27,1638.88,4348.35z"/>
	<path class="st9" d="M2443.24,3479.39c-0.76-1.43-2.25-2.33-3.87-2.33h-1.4c1.44,0,2.74,0.73,3.55,1.89
		c0.1,0.15,0.23,0.28,0.32,0.44l154.29,290.97c0.08,0.16,0.11,0.33,0.17,0.49c0.58,1.51,0.33,3.23-0.77,4.47l-304.21,342.54
		c-0.88,0.99-2.04,1.54-3.25,1.7c1.67,0.22,3.43-0.33,4.65-1.7l304.21-342.54c1.21-1.37,1.45-3.34,0.59-4.96L2443.24,3479.39z"/>
	<path class="st9" d="M1789.46,4064.36l154.28-290.97c0.46-0.87,0.6-1.84,0.44-2.77l-156.78,295.67
		C1788.27,4065.89,1789,4065.23,1789.46,4064.36z"/>
	<path class="st9" d="M2290.96,3195.01c0.09,0.14,0.21,0.24,0.28,0.39l129.87,244.91c0.09,0.17,0.12,0.34,0.19,0.51
		c1.07,2.8-0.95,5.92-4.06,5.92h1.4c3.3,0,5.41-3.51,3.87-6.43l-129.87-244.91c-0.96-1.82-2.89-2.56-4.65-2.25
		C2289.14,3193.32,2290.23,3193.94,2290.96,3195.01z"/>
	<path class="st9" d="M2287.37,3128.62c0.3-0.07,0.6-0.12,0.91-0.13c-0.06-0.01-0.13-0.03-0.19-0.04
		C2287.85,3128.49,2287.6,3128.54,2287.37,3128.62z"/>
	<path class="st9" d="M2957.83,4387.8l-17.15-32.34l0.7-1.32l-2.02-3.81c-0.9-0.28-1.72-0.85-2.31-1.71
		c-0.09-0.13-0.21-0.24-0.28-0.39l-129.87-244.91c-0.09-0.17-0.12-0.34-0.19-0.51c-0.36-0.95-0.36-1.93-0.09-2.82l-17.83-33.62
		c-0.92-0.29-1.73-0.88-2.3-1.69c-0.1-0.15-0.23-0.28-0.32-0.44l-154.29-290.97c-0.08-0.16-0.11-0.33-0.17-0.49
		c-0.36-0.93-0.4-1.94-0.12-2.87l-16.64-31.39c-0.87-0.27-1.67-0.8-2.25-1.6c-0.12-0.17-0.26-0.32-0.36-0.51l-321.18-605.72
		c-0.6-1.13-1.66-1.92-2.88-2.2c-0.31,0.01-0.62,0.06-0.91,0.13c-1.22,0.28-2.28,1.06-2.88,2.19l-321.21,605.72
		c-0.48,0.9-1.21,1.55-2.05,1.93l-17.05,32.16c0.16,0.93,0.02,1.9-0.44,2.77l-154.28,290.97c-0.46,0.87-1.19,1.54-2.06,1.93
		l-18.21,34.35c0.16,0.91,0.04,1.88-0.45,2.8l-129.86,244.91c-0.49,0.92-1.23,1.57-2.07,1.94l-19.63,37.02l0.7,1.32l0.15-0.29
		l13.11,24.72c0.56,1.06,1.45,1.72,2.44,2.06c0.25,0.06,0.51,0.1,0.76,0.12c1.49-0.11,2.84-0.97,3.55-2.3l321.21-605.72
		c0.93-1.75,2.81-2.55,4.57-2.26c1.4-0.23,2.91,0.22,3.97,1.41l313.53,353.02c1.91,2.15,4.38,3.31,6.9,3.49
		c2.52-0.18,4.99-1.34,6.9-3.49l313.55-353.02c1.03-1.17,2.49-1.59,3.86-1.39c1.79-0.33,3.73,0.46,4.68,2.25l321.18,605.72
		c0.64,1.21,1.8,2.02,3.12,2.25c0.15-0.02,0.29-0.05,0.43-0.09c0.11-0.03,0.21-0.09,0.32-0.13c0.26-0.09,0.52-0.19,0.76-0.33
		c0.12-0.07,0.23-0.18,0.34-0.26c0.2-0.14,0.4-0.28,0.57-0.46c0.28-0.29,0.53-0.62,0.72-0.99L2957.83,4387.8l0.7-1.31l0-0.01
		L2957.83,4387.8z M2153.65,3440.31l129.86-244.91c0.94-1.77,2.78-2.51,4.49-2.25c1.76-0.31,3.68,0.43,4.65,2.25l129.87,244.91
		c1.55,2.92-0.57,6.43-3.87,6.43h-1.4h-258.32h-1.4C2154.21,3446.74,2152.1,3443.22,2153.65,3440.31z M2596.94,3775.31
		l-304.21,342.54c-1.22,1.37-2.98,1.93-4.65,1.7c-1.67,0.22-3.43-0.33-4.65-1.7l-304.19-342.54c-1.21-1.37-1.45-3.34-0.59-4.96
		l154.28-290.97c0.76-1.43,2.25-2.33,3.87-2.33h1.4h299.77h1.4c1.62,0,3.11,0.9,3.87,2.33l154.29,290.97
		C2598.39,3771.97,2598.15,3773.95,2596.94,3775.31z"/>
</g>
<g>
	<path class="st9" d="M524.5-233.39l321.18,605.72c0.1,0.19,0.24,0.34,0.36,0.51L524.58-233.39c-0.83-1.57-2.37-2.34-3.91-2.32
		C522.28-235.69,523.75-234.81,524.5-233.39z"/>
	<path class="st9" d="M865.22,409.19l154.29,290.97c0.09,0.16,0.21,0.29,0.32,0.44L865.05,408.7
		C865.11,408.86,865.14,409.03,865.22,409.19z"/>
	<path class="st9" d="M1040.24,739.24l129.87,244.91c0.08,0.15,0.19,0.26,0.28,0.39l-130.34-245.81
		C1040.12,738.9,1040.15,739.07,1040.24,739.24z"/>
	<path class="st9" d="M2484.92,1048.98c-0.56,1.06-1.47,1.73-2.46,2.07c1.22-0.28,2.28-1.06,2.88-2.19l12.89-24.31l-0.18-0.33
		L2484.92,1048.98z"/>
	<path class="st9" d="M2480.67,1051.18h-0.58c0.63,0.14,1.28,0.14,1.9,0h-0.53H2480.67z"/>
	<path class="st9" d="M2480.38,1051.16c-0.1,0.01-0.19,0.02-0.29,0.02c0,0,0,0,0.01,0h0.58
		C2480.58,1051.18,2480.48,1051.17,2480.38,1051.16z"/>
	<path class="st9" d="M2482,1051.18c0.16-0.03,0.3-0.08,0.45-0.14c-0.32,0.08-0.65,0.14-0.99,0.14H2482z"/>
	<path class="st9" d="M654.45,76.23L524.58-168.68c-0.08-0.15-0.19-0.26-0.28-0.39L654.64,76.74
		C654.57,76.57,654.54,76.4,654.45,76.23z"/>
	<path class="st9" d="M829.47,406.28L675.18,115.31c-0.09-0.16-0.21-0.29-0.32-0.44l154.78,291.9
		C829.58,406.61,829.55,406.44,829.47,406.28z"/>
	<path class="st9" d="M849.01,443.14c-0.1-0.19-0.24-0.34-0.36-0.51l308.17,581.18l0.04-0.08L849.01,443.14z"/>
	<polygon class="st9" points="1191.17,1023.72 1827.48,-176.28 1810.33,-208.62 1174.02,991.38 	"/>
	<path class="st9" d="M3454.56,442.28L3141.01,795.3c-1.91,2.15-4.38,3.31-6.9,3.49c2.98,0.22,6.04-0.94,8.3-3.49l313.55-353.02
		c0.68-0.77,1.55-1.22,2.46-1.39C3457.06,440.69,3455.6,441.12,3454.56,442.28z"/>
	<path class="st9" d="M2477.18,984.27l-129.87-244.91c-1.55-2.92,0.57-6.43,3.87-6.43h259.73c2.26,0,3.97,1.65,4.32,3.63
		l18.21-34.35c-0.56,0.25-1.17,0.4-1.81,0.4h-301.18c-1.62,0-3.11-0.9-3.87-2.33l-154.29-290.97c-0.86-1.61-0.62-3.59,0.59-4.96
		L2477.1,61.82c2.1-2.37,5.8-2.36,7.9,0l304.19,342.54c0.56,0.63,0.9,1.39,1.03,2.19l17.05-32.16c-1.66,0.76-3.74,0.45-5.09-1.07
		L2488.65,20.29c-4.18-4.71-11.02-4.71-15.21,0l-313.55,353.02c-2.03,2.28-5.71,1.84-7.14-0.86l-308.12-581.08l-0.15,0.29
		l-13.28-25.05c-0.56-1.06-1.45-1.72-2.44-2.06c-0.34-0.09-0.69-0.14-1.06-0.14h-1.27c-0.09,0.02-0.18,0.01-0.27,0.04
		c-0.11,0.03-0.21,0.09-0.32,0.13c-0.26,0.09-0.52,0.19-0.76,0.33c-0.12,0.07-0.23,0.18-0.35,0.27c-0.19,0.14-0.39,0.28-0.56,0.45
		c-0.27,0.28-0.52,0.61-0.72,0.99l-13.13,24.76l17.15,32.34l-636.31,1200.01l-17.15-32.34l636.31-1200.01l0-0.01l-308.08,580.96
		c-1.43,2.7-5.11,3.14-7.14,0.86L1181.58,20.17c-4.18-4.71-11.02-4.71-15.21,0L852.82,373.19c-1.89,2.12-5.18,1.86-6.78-0.35
		c-0.12-0.17-0.26-0.32-0.36-0.51L524.5-233.39c-0.75-1.42-2.22-2.31-3.83-2.32c-1.51,0.01-3.01,0.78-3.83,2.32l-13.33,25.13
		L-164.3,1051.18h31.67c1.62,0,3.11-0.9,3.87-2.33l321.21-605.72c1.43-2.7,5.11-3.14,7.14-0.86L513.11,795.3
		c4.18,4.71,11.02,4.71,15.21,0l313.55-353.02c1.89-2.12,5.18-1.86,6.78,0.35c0.12,0.17,0.26,0.32,0.36,0.51l307.86,580.59
		l-0.04,0.08l13.28,25.05c0.83,1.57,2.37,2.34,3.91,2.32c0,0,0,0,0,0c0.03,0,0.05-0.01,0.07-0.01c0.36-0.01,0.71-0.05,1.05-0.14
		c0.11-0.03,0.21-0.09,0.32-0.13c0.26-0.09,0.52-0.19,0.76-0.33c0.12-0.07,0.23-0.18,0.34-0.26c0.2-0.14,0.4-0.28,0.57-0.46
		c0.28-0.29,0.53-0.62,0.72-0.99l13.32-25.12l307.88-580.59c1.43-2.7,5.11-3.14,7.14-0.86l313.53,353.02
		c4.18,4.71,11.02,4.71,15.21,0l313.55-353.02c2.03-2.28,5.71-1.84,7.14,0.86l307.59,580.09l19.63-37.02
		C2480.87,987.09,2478.33,986.45,2477.18,984.27z M386.99,76.23l129.86-244.91c1.57-2.95,5.64-3.06,7.45-0.39
		c0.09,0.13,0.21,0.24,0.28,0.39L654.45,76.23c0.09,0.17,0.12,0.34,0.19,0.51c1.07,2.8-0.95,5.92-4.06,5.92H390.86
		C387.56,82.66,385.44,79.14,386.99,76.23z M828.88,411.24L524.66,753.77c-2.1,2.37-5.8,2.37-7.9,0L212.58,411.24
		c-1.21-1.37-1.45-3.34-0.59-4.96l154.28-290.97c0.76-1.43,2.25-2.33,3.87-2.33h301.18c1.44,0,2.74,0.73,3.55,1.89
		c0.1,0.15,0.23,0.28,0.32,0.44l154.29,290.97c0.08,0.16,0.11,0.33,0.17,0.49C830.22,408.28,829.97,410,828.88,411.24z
		 M1019.83,700.6c-0.1-0.15-0.23-0.28-0.32-0.44L865.22,409.19c-0.08-0.16-0.11-0.33-0.17-0.49c-0.58-1.51-0.33-3.23,0.77-4.47
		l304.21-342.54c2.1-2.36,5.8-2.36,7.9,0l304.19,342.54c1.21,1.37,1.45,3.34,0.59,4.96l-154.28,290.97
		c-0.76,1.43-2.25,2.33-3.87,2.33h-301.18C1021.95,702.48,1020.64,701.75,1019.83,700.6z M1170.39,984.54
		c-0.09-0.14-0.21-0.24-0.28-0.39l-129.87-244.91c-0.09-0.17-0.12-0.34-0.19-0.51c-1.07-2.8,0.95-5.92,4.06-5.92h259.73
		c3.3,0,5.41,3.51,3.87,6.43l-129.86,244.91C1176.28,987.1,1172.2,987.21,1170.39,984.54z M1693.6,76.23l129.86-244.91
		c1.65-3.1,6.09-3.1,7.74,0l129.87,244.91c1.55,2.92-0.57,6.43-3.87,6.43h-259.73C1694.17,82.66,1692.06,79.14,1693.6,76.23z
		 M2135.49,411.24l-304.21,342.54c-2.1,2.37-5.8,2.37-7.9,0l-304.19-342.54c-1.21-1.37-1.45-3.34-0.59-4.96l154.28-290.97
		c0.76-1.43,2.25-2.33,3.87-2.33h301.18c1.62,0,3.11,0.9,3.87,2.33l154.29,290.97C2136.94,407.89,2136.7,409.87,2135.49,411.24z"/>
	<path class="st9" d="M2805.14,443.14l-321.21,605.72c-0.71,1.34-2.05,2.2-3.55,2.3c0.1,0.01,0.19,0.02,0.29,0.02h0.79
		c0.34,0,0.67-0.06,0.99-0.14c1-0.33,1.9-1.01,2.46-2.07l13.13-24.76l0.18,0.33l308.32-581.41c0.68-1.29,1.88-2.06,3.17-2.26
		C2807.95,440.59,2806.07,441.38,2805.14,443.14z"/>
	<path class="st9" d="M2826.67,411.24c-1.21-1.37-1.45-3.34-0.59-4.96l154.28-290.97c0.76-1.43,2.25-2.33,3.87-2.33h-1.4
		c-1.62,0-3.11,0.9-3.87,2.33l-154.28,290.97c-0.86,1.61-0.62,3.59,0.59,4.96l304.19,342.54c1.22,1.37,2.98,1.92,4.65,1.7
		c-1.21-0.16-2.37-0.71-3.25-1.7L2826.67,411.24z"/>
	<path class="st9" d="M3477.74,408.7l154.78,291.9c0.57,0.81,1.38,1.4,2.3,1.69l-157.2-296.46
		C3477.35,406.75,3477.39,407.76,3477.74,408.7z"/>
	<path class="st9" d="M3652.75,738.73l130.34,245.81c0.59,0.86,1.41,1.43,2.31,1.71l-132.75-250.34
		C3652.38,736.79,3652.38,737.78,3652.75,738.73z"/>
	<path class="st9" d="M3477.92,409.19l154.29,290.97c0.09,0.16,0.21,0.29,0.32,0.44l-154.78-291.9
		C3477.81,408.86,3477.83,409.03,3477.92,409.19z"/>
	<path class="st9" d="M3652.94,739.24l129.87,244.91c0.08,0.15,0.19,0.26,0.28,0.39l-130.34-245.81
		C3652.81,738.9,3652.85,739.07,3652.94,739.24z"/>
	<path class="st9" d="M5097.61,1048.98c-0.56,1.06-1.47,1.73-2.46,2.07c1.22-0.28,2.28-1.06,2.88-2.19l12.89-24.31l-0.18-0.33
		L5097.61,1048.98z"/>
	<path class="st9" d="M5089.88,1048.98l-13.11-24.72l-0.15,0.29l12.89,24.31c0.59,1.11,1.62,1.89,2.81,2.18
		C5091.33,1050.7,5090.43,1050.03,5089.88,1048.98z"/>
	<path class="st9" d="M5093.37,1051.18h-0.58c0.63,0.14,1.28,0.14,1.9,0h-0.53H5093.37z"/>
	<path class="st9" d="M5092.31,1051.04c0.16,0.05,0.31,0.11,0.48,0.14h0.58C5093.01,1051.18,5092.66,1051.12,5092.31,1051.04z"/>
	<path class="st9" d="M5094.69,1051.18c0.15-0.03,0.3-0.08,0.45-0.14c-0.32,0.08-0.65,0.14-0.99,0.14H5094.69z"/>
	<path class="st9" d="M3442.17,406.28l-154.29-290.97c-0.09-0.16-0.21-0.29-0.32-0.44l154.78,291.9
		C3442.27,406.61,3442.25,406.44,3442.17,406.28z"/>
	<path class="st9" d="M3461.71,443.14c-0.1-0.19-0.24-0.34-0.36-0.51l308.17,581.18l0.04-0.08L3461.71,443.14z"/>
	<polygon class="st9" points="3804.57,1022.4 4440.17,-176.28 4423.03,-208.62 3787.42,990.06 	"/>
	<polygon class="st9" points="3786.72,991.38 3803.87,1023.72 3804.57,1022.4 3787.42,990.06 	"/>
	<path class="st9" d="M5764.48-208.67l-13.11-24.72c-0.65-1.23-1.74-1.95-2.92-2.2h-1.37c-0.34,0-0.67,0.06-0.99,0.14
		c-1.22,0.28-2.28,1.06-2.88,2.19l-321.21,605.72c-1.43,2.7-5.11,3.14-7.14,0.86L5101.34,20.29c-4.18-4.71-11.02-4.71-15.21,0
		l-313.55,353.02c-2.03,2.28-5.71,1.84-7.14-0.86l-308.12-581.08l-0.15,0.29l-13.28-25.05c-0.56-1.06-1.45-1.72-2.44-2.06
		c-0.34-0.09-0.69-0.14-1.06-0.14h-1.27c-0.09,0.02-0.18,0.01-0.27,0.04c-0.11,0.03-0.21,0.09-0.32,0.13
		c-0.26,0.09-0.52,0.19-0.76,0.33c-0.12,0.07-0.23,0.18-0.35,0.27c-0.19,0.14-0.39,0.28-0.56,0.45c-0.27,0.28-0.52,0.61-0.72,0.99
		l-13.13,24.76l17.15,32.34L3804.57,1022.4l0,0.01l307.18-579.27c1.43-2.7,5.11-3.14,7.14-0.86l313.53,353.02
		c4.18,4.71,11.02,4.71,15.21,0l313.55-353.02c2.03-2.28,5.71-1.84,7.14,0.86l308.29,581.41l0.15-0.29l13.11,24.72
		c0.56,1.05,1.45,1.72,2.44,2.06c0.34,0.09,0.69,0.14,1.06,0.14h0.79c0.34,0,0.67-0.06,0.99-0.14c1-0.33,1.9-1.01,2.46-2.07
		l13.13-24.76l0.18,0.33l308.32-581.41c1.43-2.7,5.11-3.14,7.14-0.86L5739.9,795.3c4.18,4.71,11.02,4.71,15.21,0l313.55-353.02
		c2.03-2.28,5.71-1.84,7.14,0.86l321.18,605.72c0.76,1.43,2.25,2.33,3.87,2.33h31.67L5764.48-208.67z M4306.3,76.23l129.86-244.91
		c1.65-3.1,6.09-3.1,7.74,0l129.87,244.91c1.55,2.92-0.57,6.43-3.87,6.43h-259.73C4306.87,82.66,4304.75,79.14,4306.3,76.23z
		 M4748.19,411.24l-304.21,342.54c-2.1,2.37-5.8,2.37-7.9,0l-304.19-342.54c-1.21-1.37-1.45-3.34-0.59-4.96l154.28-290.97
		c0.76-1.43,2.25-2.33,3.87-2.33h301.18c1.62,0,3.11,0.9,3.87,2.33l154.29,290.97C4749.64,407.89,4749.4,409.87,4748.19,411.24z
		 M5227.47,739.36l-129.86,244.91c-1.65,3.1-6.09,3.1-7.74,0l-129.87-244.91c-1.55-2.92,0.57-6.43,3.87-6.43h259.73
		C5226.9,732.93,5229.01,736.45,5227.47,739.36z M5402.47,409.31l-154.28,290.97c-0.76,1.43-2.25,2.33-3.87,2.33h-301.18
		c-1.62,0-3.11-0.9-3.87-2.33l-154.29-290.97c-0.86-1.61-0.62-3.59,0.59-4.96l304.21-342.54c2.1-2.37,5.8-2.36,7.9,0l304.19,342.54
		C5403.09,405.72,5403.33,407.7,5402.47,409.31z M5613.78,76.23l129.86-244.91c1.65-3.1,6.09-3.1,7.74,0l129.87,244.91
		c1.55,2.92-0.57,6.43-3.87,6.43h-259.73C5614.35,82.66,5612.23,79.14,5613.78,76.23z M6055.67,411.24l-304.21,342.54
		c-2.1,2.37-5.8,2.37-7.9,0l-304.19-342.54c-1.21-1.37-1.45-3.34-0.59-4.96l154.28-290.97c0.76-1.43,2.25-2.33,3.87-2.33h301.18
		c1.62,0,3.11,0.9,3.87,2.33l154.29,290.97C6057.12,407.89,6056.88,409.87,6055.67,411.24z"/>
	<path class="st9" d="M3784.29,1048.85l-321.18-605.72c-0.95-1.79-2.89-2.58-4.68-2.25c1.13,0.16,2.2,0.74,2.92,1.74
		c0.12,0.17,0.26,0.32,0.36,0.51l307.86,580.59l-0.04,0.08l13.28,25.05c0.83,1.57,2.37,2.34,3.91,2.32c0,0,0,0,0,0
		c0.03,0,0.05-0.01,0.07-0.01c0.21-0.01,0.41-0.03,0.61-0.06C3786.09,1050.88,3784.93,1050.06,3784.29,1048.85z"/>
	<path class="st9" d="M3127.21,795.3l-313.53-353.02c-1.06-1.19-2.57-1.63-3.97-1.41c0.95,0.15,1.86,0.61,2.57,1.41l313.53,353.02
		c2.27,2.55,5.32,3.71,8.3,3.49C3131.59,798.61,3129.12,797.45,3127.21,795.3z"/>
	<path class="st9" d="M3478.51,404.23l304.21-342.54c2.1-2.36,5.8-2.36,7.9,0l304.19,342.54c1.21,1.37,1.45,3.34,0.59,4.96
		l-154.28,290.97c-0.76,1.43-2.25,2.33-3.87,2.33h-301.18c-0.43,0-0.85-0.07-1.25-0.2l17.83,33.62c0.52-1.73,2.1-3.1,4.15-3.1
		h259.73c3.3,0,5.41,3.51,3.87,6.43l-129.86,244.91c-1.06,2-3.26,2.69-5.14,2.1l2.02,3.81l635.61-1198.68l0-0.01l-308.08,580.96
		c-1.43,2.7-5.11,3.14-7.14,0.86L3794.27,20.17c-4.18-4.71-11.02-4.71-15.21,0l-313.55,353.02c-1.21,1.36-2.99,1.73-4.53,1.25
		l16.64,31.39C3477.8,405.25,3478.09,404.7,3478.51,404.23z"/>
	<path class="st9" d="M2484.92,984.27l129.86-244.91c0.49-0.92,0.61-1.89,0.45-2.8l-132.38,249.65
		C2483.68,985.84,2484.42,985.19,2484.92,984.27z"/>
	<path class="st9" d="M3289.27,115.31c-0.76-1.43-2.25-2.33-3.87-2.33h-1.4c1.44,0,2.74,0.73,3.55,1.89
		c0.1,0.15,0.23,0.28,0.32,0.44l154.29,290.97c0.08,0.16,0.11,0.33,0.17,0.49c0.58,1.51,0.33,3.23-0.77,4.47l-304.21,342.54
		c-0.88,0.99-2.04,1.54-3.25,1.7c1.67,0.22,3.43-0.33,4.65-1.7l304.21-342.54c1.21-1.37,1.45-3.34,0.59-4.96L3289.27,115.31z"/>
	<path class="st9" d="M2635.5,700.28l154.28-290.97c0.46-0.87,0.59-1.84,0.44-2.77l-156.78,295.67
		C2634.3,701.82,2635.04,701.15,2635.5,700.28z"/>
	<path class="st9" d="M2479.62,1051.04c-0.99-0.34-1.88-1.01-2.44-2.06l-13.11-24.72l-0.15,0.29l12.89,24.31
		C2477.4,1049.97,2478.43,1050.74,2479.62,1051.04z"/>
	<path class="st9" d="M2479.62,1051.04c0.16,0.05,0.31,0.11,0.47,0.14c0.1,0,0.2-0.01,0.29-0.02
		C2480.12,1051.14,2479.87,1051.1,2479.62,1051.04z"/>
	<g>
		<path class="st9" d="M3137.28-233.39l321.45,606.23c0.58,0.8,1.38,1.33,2.25,1.6l-309.19-583.11l-13.11-24.72
			c-0.65-1.23-1.74-1.95-2.92-2.2h-1.36C3135.57-235.33,3136.64-234.6,3137.28-233.39z"/>
		<path class="st9" d="M3003.55,82.66h1.4c-3.3,0-5.41-3.51-3.87-6.43l129.86-244.91c0.68-1.29,1.85-2.03,3.09-2.25
			c-1.71-0.26-3.55,0.48-4.49,2.25L2999.68,76.23C2998.14,79.15,3000.25,82.66,3003.55,82.66z"/>
		<path class="st9" d="M3134.41-235.59h-0.01c-0.02,0-0.05,0-0.07,0.01c1.22,0.28,2.28,1.07,2.88,2.2l321.18,605.72
			c0.1,0.19,0.24,0.34,0.36,0.51l-321.45-606.23C3136.64-234.6,3135.57-235.33,3134.41-235.59z"/>
		<path class="st9" d="M3137.28-168.68c-0.08-0.15-0.19-0.26-0.28-0.39l130.34,245.81c-0.07-0.17-0.1-0.34-0.19-0.51L3137.28-168.68
			z"/>
		<path class="st9" d="M2809.32,372.45l321.21-605.72c0.6-1.13,1.66-1.91,2.88-2.19c0.24-0.08,0.48-0.13,0.72-0.17
			c-0.25-0.05-0.5-0.08-0.76-0.08c-1.51,0.01-3.01,0.78-3.83,2.32l-13.33,25.13l-308.94,582.63
			C2808.11,374,2808.84,373.36,2809.32,372.45z"/>
		<path class="st9" d="M3136.99-169.07c0.09,0.13,0.21,0.24,0.28,0.39l129.87,244.91c0.09,0.17,0.12,0.34,0.19,0.51
			c1.07,2.8-0.95,5.92-4.06,5.92h1.4c3.3,0,5.41-3.51,3.87-6.43l-129.87-244.91c-0.96-1.82-2.89-2.56-4.65-2.25
			C3135.18-170.76,3136.27-170.14,3136.99-169.07z"/>
		<path class="st9" d="M3804.57,1022.4l-0.7,1.32l-17.15-32.34l0.7-1.32l-2.02-3.81c-0.9-0.28-1.72-0.85-2.31-1.71
			c-0.09-0.14-0.21-0.24-0.28-0.39l-129.87-244.91c-0.09-0.17-0.12-0.34-0.19-0.51c-0.36-0.95-0.36-1.93-0.09-2.82l-17.83-33.62
			c-0.92-0.29-1.73-0.88-2.3-1.69c-0.1-0.15-0.23-0.28-0.32-0.44l-154.29-290.97c-0.08-0.16-0.11-0.33-0.17-0.49
			c-0.36-0.93-0.4-1.94-0.12-2.87l-16.64-31.39c-0.87-0.27-1.67-0.8-2.25-1.6c-0.12-0.17-0.26-0.32-0.36-0.51l-321.18-605.72
			c-0.6-1.13-1.66-1.92-2.88-2.2c-0.31,0.01-0.62,0.06-0.91,0.13c-1.22,0.28-2.28,1.06-2.88,2.19l-321.21,605.72
			c-0.48,0.9-1.21,1.55-2.05,1.93l-17.05,32.16c0.16,0.93,0.02,1.9-0.44,2.77L2635.5,700.28c-0.46,0.87-1.19,1.54-2.06,1.93
			l-18.21,34.35c0.16,0.91,0.04,1.88-0.45,2.8l-129.86,244.91c-0.49,0.92-1.23,1.57-2.07,1.94l-19.63,37.02l0.7,1.32l0.15-0.29
			l13.11,24.72c0.56,1.05,1.45,1.72,2.44,2.06c0.25,0.06,0.51,0.1,0.76,0.12c1.49-0.11,2.84-0.97,3.55-2.3l321.21-605.72
			c0.93-1.75,2.81-2.55,4.57-2.26c1.4-0.23,2.91,0.22,3.97,1.41l313.53,353.02c1.91,2.15,4.38,3.31,6.9,3.49
			c2.52-0.18,4.99-1.34,6.9-3.49l313.55-353.02c1.03-1.17,2.49-1.59,3.86-1.39c1.79-0.33,3.73,0.46,4.68,2.25l321.18,605.72
			c0.64,1.21,1.8,2.02,3.12,2.25c0.15-0.02,0.29-0.05,0.43-0.09c0.11-0.03,0.21-0.09,0.32-0.13c0.26-0.09,0.52-0.19,0.76-0.33
			c0.12-0.07,0.23-0.18,0.34-0.26c0.2-0.14,0.4-0.28,0.57-0.46c0.28-0.29,0.53-0.62,0.72-0.99l13.32-25.12L3804.57,1022.4
			L3804.57,1022.4z M2999.68,76.23l129.86-244.91c0.94-1.77,2.78-2.51,4.49-2.25c1.76-0.31,3.68,0.43,4.65,2.25l129.87,244.91
			c1.55,2.92-0.57,6.43-3.87,6.43h-1.4h-258.32h-1.4C3000.25,82.66,2998.14,79.15,2999.68,76.23z M3442.97,411.24l-304.21,342.54
			c-1.22,1.37-2.98,1.92-4.65,1.7c-1.67,0.22-3.43-0.33-4.65-1.7l-304.19-342.54c-1.21-1.37-1.45-3.34-0.59-4.96l154.28-290.97
			c0.76-1.43,2.25-2.33,3.87-2.33h1.4H3284h1.4c1.62,0,3.11,0.9,3.87,2.33l154.29,290.97
			C3444.42,407.89,3444.19,409.87,3442.97,411.24z"/>
	</g>
</g>
<g>
	<path class="st9" d="M240.63,888.02l321.18,605.67c0.1,0.19,0.24,0.34,0.36,0.51L240.72,888.02c-0.83-1.57-2.37-2.34-3.91-2.32
		C238.41,885.72,239.88,886.6,240.63,888.02z"/>
	<path class="st9" d="M581.36,1530.55l154.29,290.95c0.09,0.16,0.21,0.29,0.32,0.44l-154.78-291.88
		C581.25,1530.22,581.27,1530.39,581.36,1530.55z"/>
	<path class="st9" d="M756.38,1860.57l129.87,244.89c0.08,0.15,0.19,0.26,0.28,0.39l-130.34-245.79
		C756.25,1860.23,756.29,1860.4,756.38,1860.57z"/>
	<path class="st9" d="M2851.9,885.82c-0.52-0.11-1.06-0.12-1.59-0.04c0.08,0.01,0.15,0.02,0.23,0.04H2851.9z"/>
	<path class="st9" d="M1542.69,885.8c-0.06,0.01-0.12,0.01-0.18,0.02h0.05C1542.61,885.81,1542.65,885.8,1542.69,885.8z"/>
	<path class="st9" d="M2201.05,2170.29c-0.56,1.06-1.47,1.73-2.46,2.07c1.22-0.28,2.28-1.06,2.88-2.19l12.89-24.31l-0.18-0.33
		L2201.05,2170.29z"/>
	<path class="st9" d="M2196.81,2172.49h-0.58c0.63,0.14,1.28,0.14,1.9,0h-0.53H2196.81z"/>
	<path class="st9" d="M2196.52,2172.47c-0.1,0.01-0.19,0.02-0.29,0.02c0,0,0,0,0.01,0h0.58
		C2196.71,2172.49,2196.62,2172.48,2196.52,2172.47z"/>
	<path class="st9" d="M1542.51,885.82c-0.07,0.02-0.14,0.02-0.21,0.04c0.09-0.02,0.18-0.02,0.27-0.04H1542.51z"/>
	<path class="st9" d="M2198.13,2172.49c0.16-0.03,0.3-0.08,0.45-0.14c-0.32,0.08-0.65,0.14-0.99,0.14H2198.13z"/>
	<path class="st9" d="M1543.46,885.7c-0.03,0-0.06,0.01-0.1,0.01C1543.4,885.71,1543.43,885.7,1543.46,885.7L1543.46,885.7z"/>
	<path class="st9" d="M370.59,1197.61L240.72,952.73c-0.08-0.15-0.19-0.26-0.28-0.39l130.34,245.79
		C370.71,1197.96,370.67,1197.78,370.59,1197.61z"/>
	<path class="st9" d="M545.61,1527.64l-154.29-290.95c-0.09-0.16-0.21-0.29-0.32-0.44l154.78,291.88
		C545.71,1527.97,545.69,1527.8,545.61,1527.64z"/>
	<path class="st9" d="M1543.84,885.82c0.36,0,0.71,0.06,1.06,0.15c-0.46-0.16-0.94-0.27-1.43-0.27c-0.03,0-0.07,0.01-0.1,0.01
		c-0.23,0.01-0.45,0.04-0.67,0.09c-0.04,0.01-0.08,0.01-0.12,0.02H1543.84z"/>
	<path class="st9" d="M1542.69,885.8c0.22-0.04,0.45-0.08,0.67-0.09C1543.13,885.71,1542.91,885.75,1542.69,885.8z"/>
	<path class="st9" d="M565.15,1564.49c-0.1-0.19-0.24-0.34-0.36-0.51l308.17,581.13l0.04-0.08L565.15,1564.49z"/>
	<polygon class="st9" points="907.31,2145.03 1543.61,945.12 1526.47,912.78 890.16,2112.69 	"/>
	<path class="st9" d="M1539.6,888.02c0.2-0.38,0.44-0.7,0.72-0.99C1540.03,887.33,1539.78,887.65,1539.6,888.02l-13.13,24.75l0,0.01
		L1539.6,888.02z"/>
	<path class="st9" d="M1547.33,888.02l13.28,25.05l0.15-0.29l-13.06-24.63c-0.59-1.11-1.62-1.88-2.81-2.18
		C1545.88,886.3,1546.77,886.97,1547.33,888.02z"/>
	<path class="st9" d="M2521.27,1564.49l-321.21,605.67c-0.71,1.34-2.05,2.19-3.55,2.3c0.1,0.01,0.19,0.02,0.29,0.02h0.79
		c0.34,0,0.67-0.06,0.99-0.14c1-0.33,1.9-1.01,2.46-2.07l13.13-24.76l0.18,0.33l308.32-581.36c0.68-1.29,1.88-2.06,3.17-2.26
		C2524.08,1561.95,2522.2,1562.74,2521.27,1564.49z"/>
	<path class="st9" d="M2853.41,888.02l321.45,606.18c0.58,0.8,1.38,1.33,2.25,1.6l-309.19-583.06l-13.11-24.72
		c-0.65-1.23-1.74-1.95-2.92-2.2h-1.36C2851.7,886.08,2852.77,886.81,2853.41,888.02z"/>
	<path class="st9" d="M3170.7,1563.64l-313.55,352.99c-1.91,2.15-4.38,3.31-6.9,3.49c2.98,0.22,6.04-0.94,8.3-3.49l313.55-352.99
		c0.68-0.77,1.55-1.22,2.46-1.39C3173.19,1562.05,3171.74,1562.47,3170.7,1563.64z"/>
	<path class="st9" d="M2193.31,2105.58l-129.87-244.89c-1.55-2.92,0.57-6.43,3.87-6.43h259.73c2.26,0,3.97,1.65,4.32,3.63
		l18.21-34.35c-0.56,0.25-1.17,0.4-1.81,0.4h-301.18c-1.62,0-3.11-0.9-3.87-2.33l-154.29-290.95c-0.86-1.61-0.62-3.59,0.59-4.96
		l304.21-342.51c2.1-2.37,5.8-2.36,7.9,0l304.19,342.51c0.56,0.63,0.9,1.39,1.03,2.19l17.05-32.16c-1.66,0.76-3.74,0.45-5.09-1.07
		l-313.53-352.99c-4.18-4.71-11.02-4.71-15.21,0l-313.55,352.99c-2.03,2.28-5.71,1.84-7.14-0.86l-308.12-581.04l-0.15,0.29
		l-13.28-25.05c-0.56-1.06-1.45-1.72-2.44-2.06c-0.34-0.09-0.69-0.15-1.06-0.15h-1.27c-0.09,0.02-0.18,0.01-0.27,0.04
		c-0.11,0.03-0.21,0.09-0.32,0.13c-0.26,0.09-0.52,0.19-0.76,0.33c-0.12,0.07-0.23,0.18-0.35,0.27c-0.19,0.14-0.39,0.28-0.56,0.45
		c-0.27,0.29-0.52,0.61-0.72,0.99l-13.13,24.76l17.15,32.34L907.31,2145.03l-17.15-32.34l636.31-1199.91l0-0.01l-308.08,580.92
		c-1.43,2.7-5.11,3.14-7.14,0.86l-313.53-352.99c-4.18-4.71-11.02-4.71-15.21,0l-313.55,352.99c-1.89,2.12-5.18,1.86-6.78-0.35
		c-0.12-0.17-0.26-0.32-0.36-0.51L240.63,888.02c-0.75-1.42-2.22-2.31-3.83-2.32c-1.51,0.01-3.01,0.79-3.83,2.32l-13.33,25.13
		l-667.82,1259.34h31.67c1.62,0,3.11-0.9,3.87-2.33l321.21-605.67c1.43-2.7,5.11-3.14,7.14-0.86l313.53,352.99
		c4.18,4.71,11.02,4.71,15.21,0L558,1563.64c1.89-2.12,5.18-1.86,6.78,0.35c0.12,0.17,0.26,0.32,0.36,0.51L873,2145.04l-0.04,0.08
		l13.28,25.04c0.83,1.57,2.37,2.34,3.91,2.32c0,0,0,0,0,0c0.03,0,0.05-0.01,0.07-0.01c0.36-0.01,0.71-0.05,1.05-0.14
		c0.11-0.03,0.21-0.09,0.32-0.13c0.26-0.09,0.52-0.19,0.76-0.33c0.12-0.07,0.23-0.18,0.34-0.26c0.2-0.14,0.4-0.28,0.57-0.46
		c0.28-0.29,0.53-0.62,0.72-0.99l13.32-25.12l307.88-580.55c1.43-2.7,5.11-3.14,7.14-0.86l313.53,352.99
		c4.18,4.71,11.02,4.71,15.21,0l313.55-352.99c2.03-2.28,5.71-1.84,7.14,0.86l307.59,580.04l19.63-37.01
		C2197,2108.4,2194.47,2107.76,2193.31,2105.58z M103.12,1197.61l129.86-244.89c1.57-2.95,5.64-3.06,7.45-0.39
		c0.09,0.13,0.21,0.24,0.28,0.39l129.87,244.89c0.09,0.17,0.12,0.34,0.19,0.51c1.07,2.8-0.95,5.92-4.06,5.92H106.99
		C103.69,1204.04,101.58,1200.53,103.12,1197.61z M545.01,1532.6L240.8,1875.1c-2.1,2.37-5.8,2.37-7.9,0L-71.29,1532.6
		c-1.21-1.37-1.45-3.34-0.59-4.96L82.4,1236.69c0.76-1.43,2.25-2.33,3.87-2.33h301.18c1.44,0,2.74,0.73,3.55,1.89
		c0.1,0.15,0.23,0.28,0.32,0.44l154.29,290.95c0.08,0.16,0.11,0.33,0.17,0.49C546.36,1529.64,546.11,1531.36,545.01,1532.6z
		 M735.97,1821.93c-0.1-0.15-0.23-0.28-0.32-0.44l-154.29-290.95c-0.08-0.16-0.11-0.33-0.17-0.49c-0.58-1.51-0.33-3.23,0.77-4.47
		l304.21-342.51c2.1-2.36,5.8-2.36,7.9,0l304.19,342.51c1.21,1.37,1.45,3.34,0.59,4.96l-154.28,290.95
		c-0.76,1.43-2.25,2.33-3.87,2.33H739.52C738.08,1823.82,736.78,1823.09,735.97,1821.93z M886.53,2105.85
		c-0.09-0.14-0.21-0.24-0.28-0.39l-129.87-244.89c-0.09-0.17-0.12-0.34-0.19-0.51c-1.07-2.8,0.95-5.92,4.06-5.92h259.73
		c3.3,0,5.41,3.51,3.87,6.43l-129.86,244.89C892.41,2108.41,888.34,2108.52,886.53,2105.85z M1409.74,1197.61l129.86-244.89
		c1.65-3.1,6.09-3.1,7.74,0l129.87,244.89c1.55,2.92-0.57,6.43-3.87,6.43h-259.73C1410.31,1204.04,1408.19,1200.53,1409.74,1197.61z
		 M1851.63,1532.6l-304.21,342.51c-2.1,2.37-5.8,2.37-7.9,0l-304.19-342.51c-1.21-1.37-1.45-3.34-0.59-4.96l154.28-290.95
		c0.76-1.43,2.25-2.33,3.87-2.33h301.18c1.62,0,3.11,0.9,3.87,2.33l154.29,290.95C1853.08,1529.25,1852.84,1531.23,1851.63,1532.6z"
		/>
	<path class="st9" d="M2542.81,1532.6c-1.21-1.37-1.45-3.34-0.59-4.96l154.28-290.95c0.76-1.43,2.25-2.33,3.87-2.33h-1.4
		c-1.62,0-3.11,0.9-3.87,2.33l-154.28,290.95c-0.86,1.61-0.62,3.59,0.59,4.96l304.19,342.51c1.22,1.37,2.98,1.93,4.65,1.7
		c-1.21-0.16-2.37-0.71-3.25-1.7L2542.81,1532.6z"/>
	<path class="st9" d="M3193.88,1530.06l154.78,291.88c0.57,0.81,1.38,1.4,2.3,1.69l-157.2-296.44
		C3193.48,1528.11,3193.52,1529.12,3193.88,1530.06z"/>
	<path class="st9" d="M2719.69,1204.04h1.4c-3.3,0-5.41-3.51-3.87-6.43l129.86-244.89c0.68-1.29,1.85-2.03,3.09-2.25
		c-1.71-0.26-3.55,0.48-4.49,2.25l-129.86,244.89C2714.27,1200.53,2716.39,1204.04,2719.69,1204.04z"/>
	<path class="st9" d="M3368.88,1860.06l130.34,245.79c0.59,0.86,1.41,1.43,2.31,1.71l-132.75-250.32
		C3368.52,1858.13,3368.52,1859.11,3368.88,1860.06z"/>
	<path class="st9" d="M2850.31,885.78c-0.27-0.05-0.54-0.08-0.81-0.08c0.26,0,0.51,0.04,0.76,0.08
		C2850.28,885.78,2850.3,885.78,2850.31,885.78z"/>
	<path class="st9" d="M2850.45,885.82c0.02,0,0.05-0.01,0.07-0.01h0.01c-0.08-0.02-0.15-0.03-0.23-0.04c-0.02,0-0.03,0-0.05,0.01
		C2850.33,885.79,2850.39,885.81,2850.45,885.82z"/>
	<path class="st9" d="M2850.54,885.82h-0.01c-0.02,0-0.05,0.01-0.07,0.01c1.22,0.28,2.28,1.07,2.88,2.2l321.18,605.67
		c0.1,0.19,0.24,0.34,0.36,0.51l-321.45-606.18C2852.77,886.81,2851.7,886.08,2850.54,885.82z"/>
	<path class="st9" d="M3194.05,1530.55l154.29,290.95c0.09,0.16,0.21,0.29,0.32,0.44l-154.78-291.88
		C3193.94,1530.22,3193.97,1530.39,3194.05,1530.55z"/>
	<path class="st9" d="M3369.07,1860.57l129.87,244.89c0.08,0.15,0.19,0.26,0.28,0.39l-130.34-245.79
		C3368.95,1860.23,3368.98,1860.4,3369.07,1860.57z"/>
	<path class="st9" d="M4155.38,885.8c-0.06,0.01-0.12,0.01-0.18,0.02h0.05C4155.3,885.81,4155.34,885.8,4155.38,885.8z"/>
	<path class="st9" d="M4813.75,2170.29c-0.56,1.06-1.47,1.73-2.46,2.07c1.22-0.28,2.28-1.06,2.88-2.19l12.89-24.31l-0.18-0.33
		L4813.75,2170.29z"/>
	<path class="st9" d="M4806.01,2170.29l-13.11-24.72l-0.15,0.29l12.89,24.31c0.59,1.11,1.62,1.89,2.81,2.18
		C4807.46,2172.01,4806.57,2171.34,4806.01,2170.29z"/>
	<path class="st9" d="M4809.5,2172.49h-0.58c0.63,0.14,1.28,0.14,1.9,0h-0.53H4809.5z"/>
	<path class="st9" d="M4808.45,2172.35c0.16,0.05,0.31,0.11,0.48,0.14h0.58C4809.14,2172.49,4808.79,2172.43,4808.45,2172.35z"/>
	<path class="st9" d="M4155.21,885.82c-0.07,0.02-0.14,0.02-0.21,0.04c0.09-0.02,0.18-0.02,0.27-0.04H4155.21z"/>
	<path class="st9" d="M4810.83,2172.49c0.16-0.03,0.3-0.08,0.45-0.14c-0.32,0.08-0.65,0.14-0.99,0.14H4810.83z"/>
	<path class="st9" d="M4156.15,885.7c-0.03,0-0.06,0.01-0.1,0.01C4156.09,885.71,4156.12,885.7,4156.15,885.7L4156.15,885.7z"/>
	<path class="st9" d="M2853.41,952.73c-0.08-0.15-0.19-0.26-0.28-0.39l130.34,245.79c-0.07-0.17-0.1-0.34-0.19-0.51L2853.41,952.73z
		"/>
	<path class="st9" d="M3158.3,1527.64l-154.29-290.95c-0.09-0.16-0.21-0.29-0.32-0.44l154.78,291.88
		C3158.41,1527.97,3158.38,1527.8,3158.3,1527.64z"/>
	<path class="st9" d="M4156.53,885.82c0.36,0,0.71,0.06,1.06,0.15c-0.46-0.16-0.94-0.27-1.43-0.27c-0.03,0-0.07,0.01-0.1,0.01
		c-0.23,0.01-0.45,0.04-0.67,0.09c-0.04,0.01-0.08,0.01-0.12,0.02H4156.53z"/>
	<path class="st9" d="M4155.38,885.8c0.22-0.04,0.45-0.08,0.67-0.09C4155.83,885.71,4155.6,885.75,4155.38,885.8z"/>
	<path class="st9" d="M3177.84,1564.49c-0.1-0.19-0.24-0.34-0.36-0.51l308.17,581.13l0.04-0.08L3177.84,1564.49z"/>
	<polygon class="st9" points="3520.7,2143.71 4156.31,945.12 4139.16,912.78 3503.55,2111.37 	"/>
	<polygon class="st9" points="3502.85,2112.69 3520,2145.03 3520.7,2143.71 3503.55,2111.37 	"/>
	<path class="st9" d="M4152.29,888.02c0.2-0.38,0.44-0.7,0.72-0.99C4152.73,887.33,4152.48,887.65,4152.29,888.02l-13.13,24.75
		l0,0.01L4152.29,888.02z"/>
	<path class="st9" d="M4160.03,888.02l13.28,25.05l0.15-0.29l-13.06-24.63c-0.59-1.11-1.62-1.88-2.81-2.18
		C4158.58,886.3,4159.47,886.97,4160.03,888.02z"/>
	<path class="st9" d="M3500.42,2170.16l-321.18-605.67c-0.95-1.79-2.89-2.58-4.68-2.25c1.13,0.16,2.2,0.74,2.92,1.74
		c0.12,0.17,0.26,0.32,0.36,0.51l307.86,580.55l-0.04,0.08l13.28,25.04c0.83,1.57,2.37,2.34,3.91,2.32c0,0,0,0,0,0
		c0.03,0,0.05-0.01,0.07-0.01c0.21-0.01,0.41-0.03,0.61-0.06C3502.22,2172.19,3501.06,2171.37,3500.42,2170.16z"/>
	<path class="st9" d="M3194.65,1525.59l304.21-342.51c2.1-2.36,5.8-2.36,7.9,0l304.19,342.51c1.21,1.37,1.45,3.34,0.59,4.96
		l-154.28,290.95c-0.76,1.43-2.25,2.33-3.87,2.33h-301.18c-0.43,0-0.85-0.07-1.25-0.2l17.83,33.62c0.52-1.73,2.1-3.1,4.15-3.1
		h259.73c3.3,0,5.41,3.51,3.87,6.43l-129.86,244.89c-1.06,2-3.26,2.69-5.14,2.1l2.02,3.81l635.61-1198.59l0-0.01l-308.08,580.92
		c-1.43,2.7-5.11,3.14-7.14,0.86l-313.53-352.99c-4.18-4.71-11.02-4.71-15.21,0l-313.55,352.99c-1.21,1.36-2.99,1.73-4.53,1.25
		l16.64,31.38C3193.93,1526.61,3194.23,1526.06,3194.65,1525.59z"/>
	<path class="st9" d="M5480.62,912.74l-13.11-24.72c-0.65-1.23-1.74-1.95-2.92-2.2h-1.37c-0.34,0-0.67,0.06-0.99,0.14
		c-1.22,0.28-2.28,1.06-2.88,2.19l-321.21,605.67c-1.43,2.7-5.11,3.14-7.14,0.86l-313.53-352.99c-4.18-4.71-11.02-4.71-15.21,0
		l-313.55,352.99c-2.03,2.28-5.71,1.84-7.14-0.86l-308.12-581.04l-0.15,0.29l-13.28-25.05c-0.56-1.06-1.45-1.72-2.44-2.06
		c-0.34-0.09-0.69-0.15-1.06-0.15h-1.27c-0.09,0.02-0.18,0.01-0.27,0.04c-0.11,0.03-0.21,0.09-0.32,0.13
		c-0.26,0.09-0.52,0.19-0.76,0.33c-0.12,0.07-0.23,0.18-0.35,0.27c-0.19,0.14-0.39,0.28-0.56,0.45c-0.27,0.29-0.52,0.61-0.72,0.99
		l-13.13,24.76l17.15,32.34L3520.7,2143.71l0,0.01l307.18-579.22c1.43-2.7,5.11-3.14,7.14-0.86l313.53,352.99
		c4.18,4.71,11.02,4.71,15.21,0l313.55-352.99c2.03-2.28,5.71-1.84,7.14,0.86l308.29,581.36l0.15-0.29l13.11,24.72
		c0.56,1.05,1.45,1.72,2.44,2.06c0.34,0.09,0.69,0.14,1.06,0.14h0.79c0.34,0,0.67-0.06,0.99-0.14c1-0.33,1.9-1.01,2.46-2.07
		l13.13-24.76l0.18,0.33l308.32-581.36c1.43-2.7,5.11-3.14,7.14-0.86l313.53,352.99c4.18,4.71,11.02,4.71,15.21,0l313.55-352.99
		c2.03-2.28,5.71-1.84,7.14,0.86l321.18,605.67c0.76,1.43,2.25,2.33,3.87,2.33h31.67L5480.62,912.74z M4022.43,1197.61
		l129.86-244.89c1.65-3.1,6.09-3.1,7.74,0l129.87,244.89c1.55,2.92-0.57,6.43-3.87,6.43H4026.3
		C4023,1204.04,4020.89,1200.53,4022.43,1197.61z M4464.32,1532.6l-304.21,342.51c-2.1,2.37-5.8,2.37-7.9,0l-304.19-342.51
		c-1.21-1.37-1.45-3.34-0.59-4.96l154.28-290.95c0.76-1.43,2.25-2.33,3.87-2.33h301.18c1.62,0,3.11,0.9,3.87,2.33l154.29,290.95
		C4465.77,1529.25,4465.54,1531.23,4464.32,1532.6z M4943.6,1860.69l-129.86,244.89c-1.65,3.1-6.09,3.1-7.74,0l-129.87-244.89
		c-1.55-2.92,0.57-6.43,3.87-6.43h259.73C4943.04,1854.27,4945.15,1857.78,4943.6,1860.69z M5118.61,1530.67l-154.28,290.94
		c-0.76,1.43-2.25,2.33-3.87,2.33h-301.17c-1.62,0-3.11-0.9-3.87-2.33l-154.29-290.95c-0.86-1.61-0.62-3.59,0.59-4.96l304.21-342.51
		c2.1-2.37,5.8-2.36,7.9,0l304.19,342.51C5119.23,1527.08,5119.46,1529.05,5118.61,1530.67z M5329.92,1197.61l129.86-244.89
		c1.65-3.1,6.09-3.1,7.74,0l129.87,244.89c1.55,2.92-0.57,6.43-3.87,6.43h-259.73C5330.48,1204.04,5328.37,1200.53,5329.92,1197.61z
		 M5771.8,1532.6l-304.21,342.51c-2.1,2.37-5.8,2.37-7.9,0L5155.5,1532.6c-1.21-1.37-1.45-3.34-0.59-4.96l154.28-290.95
		c0.76-1.43,2.25-2.33,3.87-2.33h301.18c1.62,0,3.11,0.9,3.87,2.33l154.29,290.95C5773.25,1529.25,5773.02,1531.23,5771.8,1532.6z"
		/>
	<path class="st9" d="M2843.34,1916.63l-313.53-352.99c-1.06-1.19-2.57-1.63-3.97-1.41c0.95,0.15,1.86,0.61,2.57,1.41l313.53,352.99
		c2.27,2.55,5.32,3.71,8.3,3.49C2847.73,1919.94,2845.26,1918.78,2843.34,1916.63z"/>
	<path class="st9" d="M2525.45,1493.82l321.21-605.67c0.6-1.13,1.66-1.91,2.88-2.19c0.24-0.08,0.48-0.13,0.72-0.17
		c-0.25-0.05-0.5-0.08-0.76-0.08c-1.51,0.01-3.01,0.79-3.83,2.32l-13.33,25.13l-308.94,582.59
		C2524.24,1495.36,2524.98,1494.72,2525.45,1493.82z"/>
	<path class="st9" d="M2201.05,2105.58l129.86-244.89c0.49-0.92,0.61-1.89,0.45-2.8l-132.38,249.63
		C2199.82,2107.15,2200.56,2106.51,2201.05,2105.58z"/>
	<path class="st9" d="M3005.41,1236.69c-0.76-1.43-2.25-2.33-3.87-2.33h-1.4c1.44,0,2.74,0.73,3.55,1.89
		c0.1,0.15,0.23,0.28,0.32,0.44l154.29,290.95c0.08,0.16,0.11,0.33,0.17,0.49c0.58,1.51,0.33,3.23-0.77,4.47l-304.21,342.51
		c-0.88,0.99-2.04,1.54-3.25,1.7c1.67,0.22,3.43-0.33,4.65-1.7l304.21-342.51c1.21-1.37,1.45-3.34,0.59-4.96L3005.41,1236.69z"/>
	<path class="st9" d="M2351.63,1821.61l154.28-290.94c0.46-0.87,0.59-1.84,0.44-2.77l-156.78,295.65
		C2350.44,1823.15,2351.17,1822.48,2351.63,1821.61z"/>
	<path class="st9" d="M2853.13,952.33c0.09,0.13,0.21,0.24,0.28,0.39l129.87,244.89c0.09,0.17,0.12,0.34,0.19,0.51
		c1.07,2.8-0.95,5.92-4.06,5.92h1.4c3.3,0,5.41-3.51,3.87-6.43l-129.87-244.89c-0.96-1.82-2.89-2.56-4.65-2.25
		C2851.31,950.65,2852.4,951.27,2853.13,952.33z"/>
	<path class="st9" d="M2849.54,885.95c0.3-0.07,0.6-0.12,0.91-0.13c-0.06-0.01-0.13-0.03-0.19-0.04
		C2850.02,885.82,2849.78,885.87,2849.54,885.95z"/>
	<path class="st9" d="M2195.75,2172.35c-0.99-0.34-1.88-1.01-2.44-2.06l-13.11-24.72l-0.15,0.29l12.89,24.31
		C2193.53,2171.27,2194.56,2172.05,2195.75,2172.35z"/>
	<path class="st9" d="M2195.75,2172.35c0.16,0.05,0.31,0.11,0.47,0.14c0.1,0,0.2-0.01,0.29-0.02
		C2196.26,2172.45,2196,2172.41,2195.75,2172.35z"/>
	<path class="st9" d="M3520,2145.03l-17.15-32.34l0.7-1.32l-2.02-3.81c-0.9-0.28-1.72-0.85-2.31-1.71
		c-0.09-0.14-0.21-0.24-0.28-0.39l-129.87-244.89c-0.09-0.17-0.12-0.34-0.19-0.51c-0.36-0.95-0.36-1.93-0.09-2.82l-17.83-33.62
		c-0.92-0.29-1.73-0.88-2.3-1.69c-0.1-0.15-0.23-0.28-0.32-0.44l-154.29-290.95c-0.08-0.16-0.11-0.33-0.17-0.49
		c-0.36-0.93-0.4-1.94-0.12-2.87l-16.64-31.38c-0.87-0.27-1.67-0.8-2.25-1.6c-0.12-0.17-0.26-0.32-0.36-0.51l-321.18-605.67
		c-0.6-1.13-1.66-1.92-2.88-2.2c-0.31,0.01-0.62,0.06-0.91,0.13c-1.22,0.28-2.28,1.06-2.88,2.19l-321.21,605.67
		c-0.48,0.9-1.21,1.55-2.05,1.93l-17.05,32.16c0.16,0.93,0.02,1.9-0.44,2.77l-154.28,290.94c-0.46,0.87-1.19,1.54-2.06,1.93
		l-18.21,34.35c0.16,0.91,0.04,1.88-0.45,2.8l-129.86,244.89c-0.49,0.92-1.23,1.57-2.07,1.94l-19.63,37.01l0.7,1.32l0.15-0.29
		l13.11,24.72c0.56,1.05,1.45,1.72,2.44,2.06c0.25,0.06,0.51,0.1,0.76,0.12c1.49-0.11,2.84-0.97,3.55-2.3l321.21-605.67
		c0.93-1.75,2.81-2.55,4.57-2.26c1.4-0.23,2.91,0.22,3.97,1.41l313.53,352.99c1.91,2.15,4.38,3.31,6.9,3.49
		c2.52-0.18,4.99-1.34,6.9-3.49l313.55-352.99c1.03-1.16,2.49-1.59,3.86-1.39c1.79-0.33,3.73,0.46,4.68,2.25l321.18,605.67
		c0.64,1.21,1.8,2.02,3.12,2.25c0.15-0.02,0.29-0.05,0.43-0.09c0.11-0.03,0.21-0.09,0.32-0.13c0.26-0.09,0.52-0.19,0.76-0.33
		c0.12-0.07,0.23-0.18,0.34-0.26c0.2-0.14,0.4-0.28,0.57-0.46c0.28-0.29,0.53-0.62,0.72-0.99L3520,2145.03l0.7-1.31l0-0.01
		L3520,2145.03z M2715.82,1197.61l129.86-244.89c0.94-1.77,2.78-2.51,4.49-2.25c1.76-0.31,3.68,0.43,4.65,2.25l129.87,244.89
		c1.55,2.92-0.57,6.43-3.87,6.43h-1.4h-258.33h-1.4C2716.39,1204.04,2714.27,1200.53,2715.82,1197.61z M3159.11,1532.6
		l-304.21,342.51c-1.22,1.37-2.98,1.93-4.65,1.7c-1.67,0.22-3.43-0.33-4.65-1.7l-304.19-342.51c-1.21-1.37-1.45-3.34-0.59-4.96
		l154.28-290.95c0.76-1.43,2.25-2.33,3.87-2.33h1.4h299.77h1.4c1.62,0,3.11,0.9,3.87,2.33l154.29,290.95
		C3160.56,1529.25,3160.32,1531.23,3159.11,1532.6z"/>
</g>
</svg>
